<?xml version="1.0" encoding="utf-8"?>
<!-- Generator: Adobe Illustrator 27.5.0, SVG Export Plug-In . SVG Version: 6.00 Build 0)  -->
<svg version="1.1" id="レイヤー_1" xmlns="http://www.w3.org/2000/svg" xmlns:xlink="http://www.w3.org/1999/xlink" x="0px"
	 y="0px" viewBox="0 0 180.1 178.8" style="enable-background:new 0 0 180.1 178.8;" xml:space="preserve">
<g>
	<path d="M64.6,18.2c0.1,0,0.2,0,0.3,0c0.1,0,0.2,0,0.3-0.1c0.1,0,0.2-0.1,0.4-0.1c0.1,0,0.2-0.1,0.3-0.1c0.4-0.2,0.8-0.4,1.2-0.6
		c0.3-0.2,0.6-0.4,0.8-0.7c0.2-0.3,0.4-0.6,0.6-0.9s0.3-0.8,0.5-1.2l0.2,0.1L69,17.2c-0.1,0-0.3,0.1-0.4,0.1c-0.1,0-0.3,0.1-0.4,0.1
		L63.9,19c-0.2,0.1-0.4,0.2-0.6,0.3c-0.2,0.1-0.4,0.2-0.6,0.3l0-0.1c0.3-0.1,0.5-0.2,0.6-0.4c0.1-0.1,0.2-0.3,0.2-0.4s0-0.3,0-0.6
		c-0.1-0.2-0.1-0.5-0.3-0.8l-1.4-3.8c-0.1-0.3-0.2-0.6-0.3-0.8c-0.1-0.2-0.2-0.3-0.3-0.4c-0.1-0.1-0.3-0.2-0.5-0.2
		c-0.2,0-0.4,0-0.7,0.1l0-0.1c0.3-0.1,0.5-0.2,0.7-0.2c0.2-0.1,0.5-0.2,0.7-0.2c0.2-0.1,0.5-0.2,0.8-0.3c0.3-0.1,0.6-0.2,0.9-0.3
		c0.5-0.2,1-0.4,1.6-0.6c0.5-0.2,1-0.4,1.6-0.6c0,0.1,0,0.2,0.1,0.3c0,0.1,0.1,0.2,0.1,0.2l0.2,0.5c0.1,0.2,0.1,0.3,0.2,0.5
		c0.1,0.2,0.2,0.3,0.3,0.5l-0.1,0.1c-0.2-0.3-0.5-0.6-0.7-0.7c-0.2-0.2-0.5-0.3-0.8-0.3c-0.3,0-0.5,0-0.8,0c-0.3,0-0.5,0.1-0.8,0.2
		c-0.5,0.2-1,0.4-1.5,0.6l1,2.8c0.1-0.1,0.3-0.1,0.4-0.2c0.1-0.1,0.3-0.1,0.4-0.2c0.5-0.2,0.9-0.4,1.1-0.8c0.2-0.3,0.3-0.8,0.1-1.3
		l0.1,0c0.1,0.3,0.2,0.5,0.3,0.8s0.2,0.5,0.3,0.8c0.1,0.3,0.2,0.5,0.3,0.8c0.1,0.3,0.2,0.5,0.3,0.8l-0.1,0.1
		c-0.2-0.3-0.4-0.5-0.5-0.7c-0.2-0.2-0.3-0.3-0.5-0.3c-0.2-0.1-0.4-0.1-0.6,0c-0.2,0-0.5,0.1-0.8,0.2l-0.7,0.3L64.6,18.2z"/>
	<path d="M71.3,15.6c0.1,0.3,0.2,0.4,0.3,0.5c0.2,0,0.4,0.1,0.6,0l0,0.1c-0.2,0-0.5,0.1-0.7,0.1s-0.5,0.1-0.8,0.2
		c-0.2,0-0.4,0.1-0.5,0.1c-0.2,0-0.3,0.1-0.5,0.2l0-0.1c0.3-0.1,0.5-0.2,0.6-0.3c0.1-0.1,0.2-0.3,0.1-0.6l-0.6-2.4
		c0-0.2-0.1-0.3-0.1-0.4c-0.1-0.1-0.1-0.2-0.2-0.2c-0.1,0-0.2-0.1-0.3-0.1c-0.1,0-0.2,0-0.4,0l0-0.1l1.6-0.6l0.1,0.6
		c0.2-0.2,0.4-0.5,0.6-0.6c0.2-0.2,0.5-0.3,0.8-0.4c0.3-0.1,0.5-0.1,0.8,0c0.2,0.1,0.5,0.2,0.7,0.3c0.1-0.1,0.2-0.2,0.3-0.3
		c0.1-0.1,0.2-0.2,0.3-0.3c0.1-0.1,0.2-0.2,0.4-0.3c0.1-0.1,0.3-0.1,0.4-0.2c0.5-0.1,0.9-0.1,1.2,0.1c0.3,0.2,0.6,0.6,0.7,1.1
		l0.5,2.1c0.1,0.3,0.2,0.4,0.3,0.5c0.2,0,0.4,0.1,0.7,0l0,0.1c-0.3,0-0.5,0.1-0.8,0.1c-0.3,0.1-0.5,0.1-0.8,0.2
		c-0.2,0-0.3,0.1-0.5,0.1c-0.2,0-0.3,0.1-0.4,0.1l0-0.1c0.2-0.1,0.4-0.2,0.5-0.3c0.1-0.1,0.1-0.3,0.1-0.6l-0.5-2
		c-0.1-0.4-0.3-0.6-0.5-0.8c-0.2-0.1-0.5-0.2-0.7-0.1c-0.5,0.1-0.8,0.3-1.1,0.7l0.7,2.7c0.1,0.3,0.2,0.4,0.3,0.5
		c0.2,0,0.4,0.1,0.6,0l0,0.1c-0.2,0-0.5,0.1-0.7,0.1s-0.5,0.1-0.8,0.2c-0.2,0-0.3,0.1-0.5,0.1c-0.2,0-0.3,0.1-0.4,0.1l0-0.1
		c0.2-0.1,0.4-0.2,0.5-0.3c0.1-0.1,0.1-0.3,0.1-0.6l-0.5-2c-0.1-0.4-0.2-0.7-0.4-0.8s-0.5-0.2-0.8-0.1c-0.1,0-0.2,0.1-0.3,0.1
		c-0.1,0-0.2,0.1-0.2,0.2c-0.1,0.1-0.1,0.1-0.2,0.2c-0.1,0.1-0.2,0.2-0.2,0.3L71.3,15.6z"/>
	<path d="M77.5,6.5L79.3,6c0.1,0.7,0.2,1.5,0.3,2.2s0.2,1.5,0.3,2.2c0.2-0.2,0.4-0.3,0.7-0.5c0.2-0.1,0.5-0.2,0.8-0.3
		c0.3,0,0.7,0,1,0c0.3,0.1,0.6,0.2,0.8,0.4c0.2,0.2,0.4,0.4,0.6,0.6c0.2,0.3,0.3,0.5,0.3,0.9c0.1,0.4,0,0.8-0.1,1.1
		c-0.1,0.3-0.2,0.6-0.4,0.9c-0.2,0.2-0.5,0.4-0.8,0.6c-0.3,0.1-0.6,0.2-1,0.3c-0.3,0-0.5,0-0.8,0c-0.3,0-0.5-0.1-0.7-0.1
		c-0.2-0.1-0.4-0.1-0.6-0.2c-0.2-0.1-0.3-0.1-0.3-0.2l-0.9-6.8c0-0.3-0.1-0.5-0.3-0.5c-0.2-0.1-0.4-0.1-0.7-0.1L77.5,6.5z
		 M83.1,11.9c0-0.3-0.1-0.6-0.2-0.8c-0.1-0.2-0.2-0.4-0.4-0.6c-0.2-0.2-0.3-0.3-0.5-0.4c-0.2-0.1-0.4-0.1-0.6-0.1
		c-0.3,0-0.5,0.1-0.7,0.2c-0.2,0.1-0.3,0.2-0.4,0.4C80.1,10.8,80,11,80,11.3c0,0.3,0,0.6,0,1c0.1,0.4,0.1,0.7,0.2,1
		c0.1,0.2,0.2,0.4,0.4,0.6c0.1,0.1,0.3,0.2,0.5,0.3c0.2,0,0.4,0,0.7,0c0.2,0,0.4-0.1,0.6-0.2c0.2-0.1,0.3-0.3,0.4-0.5
		c0.1-0.2,0.2-0.4,0.2-0.7C83.1,12.5,83.1,12.2,83.1,11.9z"/>
	<path d="M85,13.8c0.3-0.1,0.5-0.1,0.6-0.2c0.1-0.1,0.2-0.3,0.2-0.5l-0.2-2.8c0-0.2-0.1-0.4-0.3-0.4c-0.2,0-0.4-0.1-0.6,0l0-0.1
		l1.7-0.4l0,0.7c0.1-0.1,0.2-0.2,0.3-0.3c0.1-0.1,0.2-0.2,0.4-0.3c0.1-0.1,0.3-0.2,0.4-0.3C87.8,9,87.9,8.9,88,8.9
		c0.3,0,0.5,0.1,0.7,0.2C88.9,9.3,89,9.5,89,9.8l-0.9,0.6c0-0.1,0-0.1,0-0.2c0-0.1,0-0.1,0-0.2c0-0.1-0.1-0.2-0.1-0.3
		c-0.1-0.1-0.2-0.1-0.3-0.1c-0.1,0-0.2,0-0.3,0.1c-0.1,0.1-0.2,0.1-0.3,0.2c-0.1,0.1-0.2,0.2-0.3,0.3c-0.1,0.1-0.2,0.2-0.2,0.3
		l0.2,2.5c0,0.3,0.1,0.4,0.3,0.5c0.2,0.1,0.4,0.1,0.7,0.2l0,0.1c-0.3,0-0.5,0-0.8,0c-0.3,0-0.5,0-0.8,0c-0.2,0-0.4,0-0.5,0
		c-0.2,0-0.3,0-0.5,0.1L85,13.8z"/>
	<path d="M90.1,10.1c0.1-0.2,0.2-0.4,0.3-0.6c0.1-0.1,0.3-0.3,0.4-0.3C90.9,9.1,91.1,9,91.3,9c0.2,0,0.4,0,0.6,0
		c0.2,0,0.4,0,0.6,0.1c0.2,0,0.4,0.1,0.5,0.2s0.3,0.2,0.4,0.4c0.1,0.2,0.1,0.4,0.1,0.6l0,2.2c0,0.2,0,0.3,0.1,0.4
		c0.1,0.1,0.2,0.2,0.4,0.2c0.2,0,0.3,0,0.4-0.1c0.1-0.1,0.2-0.2,0.4-0.3l0.1,0.1c-0.1,0.1-0.2,0.2-0.3,0.3c-0.1,0.1-0.2,0.2-0.3,0.3
		c-0.1,0.1-0.2,0.2-0.4,0.2c-0.1,0.1-0.2,0.1-0.4,0.1c-0.1,0-0.2,0-0.2-0.1c-0.1-0.1-0.2-0.1-0.3-0.2c-0.1-0.1-0.2-0.2-0.2-0.2
		c-0.1-0.1-0.1-0.1-0.2-0.2c-0.3,0.2-0.5,0.3-0.9,0.5c-0.3,0.1-0.6,0.2-0.9,0.2c-0.2,0-0.3,0-0.5-0.1c-0.2-0.1-0.3-0.1-0.4-0.2
		c-0.1-0.1-0.2-0.2-0.3-0.4s-0.1-0.3-0.1-0.5c0-0.3,0.1-0.6,0.3-0.8c0.2-0.2,0.4-0.3,0.7-0.4c0.3-0.1,0.6-0.2,1-0.2
		c0.4,0,0.7,0,1.1,0l0-0.9c0-0.3-0.1-0.5-0.3-0.7c-0.2-0.2-0.4-0.2-0.7-0.3c-0.2,0-0.4,0.1-0.5,0.3c-0.1,0.2-0.2,0.4-0.2,0.7
		L90.1,10.1z M92.7,11.6c-0.3-0.1-0.5-0.1-0.8-0.1c-0.2,0-0.3,0-0.5,0c-0.2,0-0.3,0.1-0.4,0.2c-0.1,0.1-0.2,0.2-0.3,0.3
		s-0.1,0.3-0.1,0.4c0,0.3,0.1,0.5,0.3,0.6c0.2,0.1,0.4,0.2,0.6,0.2c0.3,0,0.5,0,0.7-0.1c0.2-0.1,0.4-0.2,0.5-0.3L92.7,11.6z"/>
	<path d="M99.4,11.4c-0.1-0.2-0.1-0.4-0.2-0.6c-0.1-0.2-0.2-0.4-0.3-0.6c-0.1-0.2-0.3-0.3-0.5-0.4c-0.2-0.1-0.4-0.2-0.6-0.2
		c-0.2,0-0.5,0-0.6,0.1c-0.2,0.1-0.3,0.2-0.5,0.4c-0.1,0.2-0.2,0.4-0.3,0.6s-0.1,0.5-0.1,0.7c0,0.3,0,0.5,0.1,0.8
		c0.1,0.2,0.2,0.5,0.3,0.7s0.3,0.4,0.5,0.5c0.2,0.1,0.5,0.2,0.7,0.2c0.3,0,0.6,0,0.8-0.1c0.3-0.1,0.5-0.2,0.8-0.4l0.2,0.2
		c-0.4,0.3-0.7,0.5-1.1,0.6C98.3,14,97.9,14,97.5,14c-0.3,0-0.6-0.1-0.9-0.3s-0.5-0.3-0.7-0.6s-0.3-0.5-0.5-0.8
		c-0.1-0.3-0.1-0.6-0.1-0.9c0-0.3,0.1-0.6,0.3-0.9c0.1-0.3,0.3-0.5,0.6-0.7c0.2-0.2,0.5-0.4,0.8-0.5c0.3-0.1,0.6-0.1,0.9-0.1
		c0.3,0,0.6,0.1,0.9,0.1c0.3,0.1,0.6,0.1,0.8,0.2l0,1.8L99.4,11.4z"/>
	<path d="M101.6,11.7c-0.1,0.4-0.1,0.8,0,1c0.1,0.3,0.2,0.5,0.3,0.7c0.1,0.2,0.3,0.3,0.5,0.4c0.2,0.1,0.3,0.1,0.5,0.2
		c0.3,0,0.6,0,0.9,0c0.3-0.1,0.6-0.2,0.8-0.4l0.2,0.2c-0.4,0.3-0.7,0.5-1.1,0.7c-0.4,0.1-0.8,0.2-1.3,0.1c-0.3,0-0.6-0.2-0.9-0.3
		c-0.2-0.2-0.5-0.4-0.6-0.6c-0.2-0.2-0.3-0.5-0.3-0.8c-0.1-0.3-0.1-0.6,0-0.9c0-0.3,0.1-0.6,0.3-0.9c0.1-0.3,0.3-0.5,0.5-0.7
		c0.2-0.2,0.5-0.3,0.8-0.4c0.3-0.1,0.6-0.1,0.9-0.1c0.6,0.1,1.1,0.3,1.4,0.7s0.5,0.9,0.5,1.7L101.6,11.7z M104,11.7
		c0-0.2,0-0.4,0-0.6c0-0.2-0.1-0.3-0.1-0.5c-0.1-0.1-0.2-0.2-0.3-0.3c-0.1-0.1-0.3-0.1-0.5-0.2c-0.2,0-0.3,0-0.5,0.1
		c-0.2,0.1-0.3,0.2-0.4,0.3c-0.1,0.1-0.2,0.3-0.3,0.4c-0.1,0.2-0.1,0.3-0.1,0.5L104,11.7z"/>
	<path d="M110,7.6c0.3,0.1,0.6,0.2,0.9,0.3c0.3,0.1,0.6,0.2,0.9,0.3c0.3,0.1,0.6,0.2,0.9,0.2s0.6,0.2,0.9,0.2l0,0.1
		c-0.1,0-0.2,0-0.3,0c-0.1,0-0.2,0-0.3,0c-0.1,0-0.2,0.1-0.3,0.1c-0.1,0.1-0.1,0.2-0.2,0.3c0,0.1,0,0.2,0,0.4c0,0.2,0.1,0.4,0.2,0.6
		l1,2.7l2-1.8c0.3-0.3,0.5-0.5,0.5-0.8c0.1-0.2,0-0.4-0.1-0.6c-0.1-0.2-0.3-0.3-0.6-0.4l0-0.1c0.3,0.1,0.5,0.2,0.8,0.3
		c0.3,0.1,0.5,0.2,0.8,0.2c0.2,0.1,0.5,0.1,0.7,0.2c0.2,0.1,0.5,0.1,0.7,0.2l0,0.1c-0.3,0-0.6,0-0.8,0.1c-0.3,0.1-0.5,0.2-0.7,0.3
		c-0.2,0.1-0.4,0.3-0.6,0.4c-0.2,0.2-0.4,0.3-0.5,0.4l-2.2,1.9l-0.5,1.7c-0.1,0.3-0.1,0.5-0.1,0.7c0,0.2,0,0.3,0.1,0.5
		c0.1,0.1,0.2,0.2,0.4,0.3c0.2,0.1,0.4,0.2,0.6,0.3l0,0.1c-0.3-0.1-0.7-0.2-1-0.3c-0.3-0.1-0.7-0.2-1-0.3c-0.3-0.1-0.6-0.2-0.9-0.2
		c-0.3-0.1-0.6-0.1-0.9-0.2l0-0.1c0.3,0,0.5,0.1,0.7,0.1c0.2,0,0.3,0,0.5-0.1c0.1-0.1,0.2-0.2,0.3-0.3c0.1-0.2,0.2-0.4,0.3-0.7
		l0.5-1.8l-1.3-3.3c-0.1-0.2-0.1-0.3-0.2-0.5c-0.1-0.2-0.2-0.3-0.3-0.5c-0.1-0.2-0.2-0.3-0.4-0.5c-0.2-0.2-0.3-0.3-0.6-0.4L110,7.6z
		"/>
	<path d="M120.5,14.3c0.4,0.1,0.7,0.3,0.9,0.5c0.3,0.2,0.4,0.5,0.6,0.7c0.1,0.3,0.2,0.6,0.2,0.9c0,0.3-0.1,0.6-0.2,1
		c-0.1,0.3-0.3,0.6-0.5,0.8c-0.2,0.2-0.5,0.4-0.8,0.5c-0.3,0.1-0.6,0.2-0.9,0.2c-0.3,0-0.7-0.1-1-0.2c-0.4-0.1-0.7-0.3-0.9-0.5
		c-0.3-0.2-0.4-0.5-0.6-0.7s-0.2-0.6-0.2-0.9c0-0.3,0.1-0.6,0.2-1c0.1-0.3,0.3-0.6,0.5-0.8c0.2-0.2,0.5-0.4,0.8-0.5
		c0.3-0.1,0.6-0.2,0.9-0.2C119.8,14.1,120.2,14.2,120.5,14.3z M120.2,14.6c-0.2-0.1-0.4-0.1-0.6-0.1s-0.4,0.1-0.5,0.3
		c-0.2,0.1-0.3,0.3-0.4,0.5c-0.1,0.2-0.2,0.4-0.3,0.6c-0.1,0.2-0.2,0.5-0.2,0.8c0,0.3,0,0.5,0,0.8c0.1,0.2,0.2,0.5,0.3,0.7
		c0.2,0.2,0.4,0.4,0.7,0.5c0.2,0.1,0.4,0.1,0.6,0.1s0.4-0.1,0.5-0.3c0.2-0.1,0.3-0.3,0.4-0.5s0.2-0.4,0.3-0.6
		c0.1-0.2,0.1-0.5,0.2-0.7c0-0.3,0-0.5,0-0.8c-0.1-0.2-0.2-0.5-0.3-0.7C120.7,14.8,120.5,14.7,120.2,14.6z"/>
	<path d="M124,19.2c-0.1,0.3-0.2,0.6-0.1,0.8c0.1,0.2,0.3,0.4,0.6,0.6c0.2,0.1,0.5,0.2,0.8,0.2c0.3,0,0.5,0,0.7-0.1l1.1-2.3
		c0-0.1,0.1-0.2,0.1-0.3c0-0.1,0-0.2,0-0.3c0-0.1-0.1-0.2-0.2-0.3c-0.1-0.1-0.2-0.2-0.4-0.3l0.1-0.1l1.7,0.7l-1.6,3.3
		c-0.1,0.3-0.2,0.5-0.1,0.6c0.1,0.2,0.3,0.3,0.5,0.4l-0.1,0.1c-0.3-0.1-0.6-0.2-0.8-0.4c-0.3-0.1-0.6-0.2-0.8-0.4l0.3-0.6
		c-0.3,0.1-0.7,0.1-1,0.1c-0.3,0-0.7-0.1-1-0.2c-0.3-0.2-0.6-0.4-0.7-0.7c-0.2-0.3-0.1-0.7,0.1-1.1l1.1-2.2c0.1-0.2,0.1-0.4,0-0.5
		c-0.1-0.1-0.3-0.3-0.5-0.5l0.1-0.1l1.7,0.7L124,19.2z"/>
	<path d="M127.5,22.5c0.3,0.1,0.5,0.1,0.6,0.1c0.2,0,0.3-0.1,0.4-0.3l1.4-2.4c0.1-0.2,0.1-0.4,0-0.5c-0.1-0.1-0.3-0.2-0.5-0.4
		l0.1-0.1l1.6,0.7l-0.3,0.6c0.1,0,0.3,0,0.4-0.1c0.2,0,0.3,0,0.5-0.1c0.2,0,0.3,0,0.5,0c0.2,0,0.3,0,0.4,0.1
		c0.3,0.2,0.4,0.3,0.5,0.6c0,0.2,0,0.5-0.1,0.7l-1.1,0c0,0,0.1-0.1,0.1-0.1c0,0,0.1-0.1,0.1-0.2c0.1-0.1,0.1-0.2,0.1-0.3
		c0-0.1-0.1-0.2-0.2-0.3c-0.1-0.1-0.2-0.1-0.3-0.1c-0.1,0-0.3,0-0.4,0c-0.1,0-0.3,0-0.4,0.1c-0.1,0-0.2,0.1-0.3,0.1l-1.3,2.2
		c-0.1,0.2-0.2,0.4-0.1,0.6c0.1,0.1,0.3,0.3,0.5,0.5l-0.1,0.1c-0.2-0.2-0.5-0.3-0.7-0.4c-0.2-0.1-0.5-0.3-0.7-0.4
		c-0.2-0.1-0.3-0.2-0.5-0.3c-0.2-0.1-0.3-0.2-0.5-0.2L127.5,22.5z"/>
	<path d="M138.7,20.2c0.2,0.2,0.4,0.4,0.6,0.5s0.4,0.3,0.7,0.5c0.1,0.1,0.3,0.2,0.4,0.3c0.1,0.1,0.3,0.2,0.4,0.3c0,0.2,0,0.5,0,0.8
		s0,0.8,0,1.3c0,0.5,0,1,0,1.6s0,1.1,0,1.6c0,0.5,0,1,0,1.4c0,0.4,0,0.8,0,1.1l0,0c0.1-0.2,0.3-0.4,0.4-0.6c0.1-0.2,0.3-0.4,0.4-0.6
		l0.9-1.1c0.3-0.4,0.6-0.8,0.8-1.1c0.2-0.3,0.3-0.6,0.4-0.9c0.1-0.3,0.1-0.5,0-0.7c-0.1-0.2-0.2-0.4-0.5-0.7l0.1-0.1
		c0.2,0.2,0.4,0.4,0.6,0.5s0.4,0.4,0.7,0.5c0.2,0.2,0.4,0.3,0.6,0.5c0.2,0.2,0.4,0.3,0.6,0.4l-0.1,0.1c-0.4-0.3-0.8-0.4-1.1-0.3
		c-0.3,0.1-0.6,0.3-0.9,0.7l-3.9,5l-0.4-0.3c0.1-0.8,0.1-1.6,0.1-2.4c0-0.8,0-1.6,0-2.4c0-0.8-0.1-1.5-0.1-2.1
		c-0.1-0.7-0.1-1.3-0.1-1.8c-0.1,0.2-0.3,0.3-0.4,0.5c-0.1,0.2-0.3,0.3-0.4,0.5l-1.3,1.7c-0.4,0.6-0.8,1-1,1.4
		c-0.2,0.3-0.4,0.6-0.4,0.9c0,0.2,0,0.5,0.1,0.6c0.1,0.2,0.3,0.4,0.6,0.7l-0.1,0.1c-0.3-0.3-0.6-0.5-0.9-0.8
		c-0.3-0.2-0.6-0.5-0.9-0.7c-0.2-0.1-0.4-0.3-0.5-0.4c-0.2-0.1-0.4-0.3-0.6-0.4l0.1-0.1c0.2,0.1,0.4,0.3,0.6,0.3
		c0.2,0.1,0.4,0.2,0.5,0.2c0.2,0,0.3,0,0.5-0.1c0.1-0.1,0.3-0.2,0.5-0.4l3.5-4.3c-0.1-0.3-0.2-0.6-0.4-0.9c-0.2-0.3-0.4-0.6-0.6-0.8
		L138.7,20.2z"/>
	<path d="M144.2,30.1c0.2-0.1,0.4-0.2,0.6-0.2c0.2,0,0.4,0,0.5,0c0.2,0,0.3,0.1,0.5,0.3c0.2,0.1,0.3,0.3,0.5,0.4
		c0.2,0.1,0.3,0.3,0.4,0.5c0.1,0.2,0.2,0.4,0.2,0.5c0,0.2,0,0.4,0,0.6c0,0.2-0.2,0.4-0.3,0.6l-1.5,1.6c-0.1,0.1-0.2,0.2-0.2,0.4
		c0,0.1,0,0.3,0.2,0.4c0.1,0.1,0.2,0.2,0.4,0.2c0.2,0,0.3,0,0.4,0l0,0.2c-0.1,0-0.2,0-0.4,0c-0.2,0-0.3,0-0.5,0
		c-0.2,0-0.3,0-0.4-0.1c-0.1,0-0.2-0.1-0.3-0.2c-0.1-0.1-0.1-0.1-0.1-0.2c0-0.1,0-0.2-0.1-0.3c0-0.1,0-0.2,0-0.3c0-0.1,0-0.2,0-0.3
		c-0.3,0-0.6-0.1-1-0.2s-0.6-0.3-0.8-0.5c-0.1-0.1-0.2-0.2-0.3-0.4c-0.1-0.1-0.1-0.3-0.1-0.5c0-0.2,0-0.3,0-0.5
		c0-0.2,0.1-0.3,0.3-0.4c0.2-0.2,0.5-0.4,0.7-0.4c0.3,0,0.5,0,0.8,0.2c0.3,0.1,0.6,0.3,0.9,0.5c0.3,0.2,0.6,0.5,0.9,0.7L146,32
		c0.2-0.2,0.3-0.4,0.3-0.7c0-0.2-0.1-0.5-0.3-0.7c-0.2-0.1-0.3-0.2-0.6-0.1c-0.2,0.1-0.4,0.2-0.6,0.4L144.2,30.1z M145,33
		c-0.1-0.2-0.3-0.4-0.5-0.6c-0.1-0.1-0.2-0.2-0.4-0.3c-0.1-0.1-0.3-0.1-0.4-0.2c-0.1,0-0.3,0-0.4,0c-0.1,0-0.3,0.1-0.4,0.2
		c-0.2,0.2-0.3,0.4-0.2,0.6s0.2,0.4,0.3,0.6c0.2,0.2,0.4,0.3,0.6,0.4c0.2,0.1,0.4,0.1,0.5,0.1L145,33z"/>
	<path d="M148.1,33.2l0.1-0.1c0.2,0.2,0.4,0.3,0.6,0.4c0.2,0.1,0.4,0.1,0.7,0c0.2,0,0.5-0.1,0.7-0.2s0.4-0.2,0.6-0.3l0.1,0.1
		l-1.3,1.2l1.1,1.2l-0.3,0.2l-1.1-1.2l-2,1.9c-0.1,0.1-0.1,0.1-0.2,0.2c-0.1,0.1-0.1,0.2-0.1,0.2c0,0.1,0,0.2,0,0.2
		c0,0.1,0.1,0.2,0.1,0.3c0.2,0.2,0.3,0.3,0.5,0.3c0.2,0,0.4,0.1,0.6,0.1l0,0.2c-0.2,0-0.4,0-0.5,0c-0.2,0-0.4,0-0.5-0.1
		c-0.2,0-0.3-0.1-0.5-0.2c-0.2-0.1-0.3-0.2-0.4-0.3c-0.2-0.2-0.3-0.5-0.2-0.7c0.1-0.2,0.2-0.4,0.4-0.6l2.3-2.2L148.1,33.2z"/>
	<path d="M150.1,39.2c-0.3,0.2-0.4,0.4-0.4,0.7c0,0.2,0.1,0.5,0.3,0.8c0.2,0.2,0.4,0.4,0.6,0.5c0.3,0.1,0.5,0.2,0.7,0.2l2-1.6
		c0.1-0.1,0.1-0.1,0.2-0.2c0.1-0.1,0.1-0.1,0.1-0.2c0-0.1,0-0.2,0-0.3c0-0.1-0.1-0.3-0.2-0.5l0.1-0.1l1.3,1.4l-2.8,2.3
		c-0.2,0.2-0.3,0.4-0.3,0.6c0,0.2,0.1,0.4,0.3,0.6l-0.1,0.1c-0.2-0.2-0.4-0.5-0.6-0.7c-0.2-0.2-0.4-0.5-0.6-0.7l0.5-0.4
		c-0.3-0.1-0.7-0.2-1-0.3c-0.3-0.1-0.6-0.4-0.8-0.6c-0.2-0.3-0.4-0.6-0.4-1c0-0.3,0.2-0.7,0.5-0.9l1.9-1.6c0.2-0.2,0.3-0.3,0.3-0.5
		c0-0.2-0.1-0.4-0.3-0.7l0.1-0.1l1.3,1.3L150.1,39.2z"/>
	<path d="M151.9,43.6c0.2,0.2,0.4,0.3,0.5,0.4c0.2,0.1,0.3,0,0.6-0.1l2.3-1.6c0.2-0.1,0.3-0.3,0.2-0.5c0-0.2-0.1-0.3-0.3-0.5
		l0.1-0.1l1.2,1.3l-0.6,0.4c0.1,0,0.2,0.1,0.4,0.1c0.2,0,0.3,0.1,0.5,0.1c0.2,0.1,0.3,0.1,0.5,0.2c0.1,0.1,0.3,0.2,0.3,0.3
		c0.2,0.3,0.2,0.5,0.2,0.7c-0.1,0.2-0.2,0.4-0.4,0.6l-1-0.5c0.1,0,0.1,0,0.2-0.1c0.1,0,0.1-0.1,0.2-0.1c0.1-0.1,0.2-0.2,0.2-0.3
		c0-0.1,0-0.2-0.1-0.4c-0.1-0.1-0.2-0.2-0.3-0.2c-0.1-0.1-0.2-0.1-0.4-0.1c-0.1,0-0.3-0.1-0.4-0.1c-0.1,0-0.2,0-0.3-0.1l-2.1,1.5
		c-0.2,0.2-0.3,0.3-0.3,0.5c0,0.2,0.1,0.4,0.2,0.7l-0.1,0.1c-0.1-0.2-0.3-0.5-0.4-0.7c-0.1-0.2-0.3-0.4-0.5-0.7
		c-0.1-0.2-0.2-0.3-0.3-0.4c-0.1-0.1-0.2-0.3-0.3-0.4L151.9,43.6z"/>
	<path d="M157.7,46c0.2-0.1,0.5-0.1,0.6-0.1c0.2,0,0.4,0.1,0.5,0.2c0.1,0.1,0.3,0.2,0.4,0.4c0.1,0.2,0.2,0.3,0.3,0.5
		c0.1,0.2,0.2,0.4,0.3,0.6c0.1,0.2,0.1,0.4,0.1,0.6c0,0.2-0.1,0.4-0.1,0.6c-0.1,0.2-0.2,0.3-0.5,0.5l-1.9,1.2
		c-0.1,0.1-0.2,0.2-0.3,0.3c-0.1,0.1,0,0.3,0,0.4c0.1,0.1,0.2,0.2,0.3,0.3c0.1,0.1,0.3,0.1,0.4,0.2l-0.1,0.2c-0.1,0-0.2-0.1-0.4-0.1
		c-0.1,0-0.3-0.1-0.4-0.1c-0.1-0.1-0.3-0.1-0.4-0.2c-0.1-0.1-0.2-0.2-0.3-0.3c0-0.1-0.1-0.2-0.1-0.3c0-0.1,0-0.2,0-0.3
		c0-0.1,0-0.2,0.1-0.3c0-0.1,0.1-0.2,0.1-0.3c-0.3-0.1-0.6-0.3-0.9-0.5c-0.3-0.2-0.5-0.4-0.7-0.7c-0.1-0.1-0.1-0.3-0.2-0.5
		c0-0.2,0-0.3,0-0.5c0-0.2,0.1-0.3,0.2-0.4c0.1-0.1,0.2-0.3,0.4-0.3c0.3-0.2,0.6-0.2,0.8-0.2c0.3,0.1,0.5,0.2,0.8,0.4
		s0.5,0.4,0.7,0.7c0.2,0.3,0.4,0.6,0.6,0.9l0.8-0.5c0.3-0.2,0.4-0.4,0.4-0.6c0-0.2,0-0.5-0.2-0.7c-0.1-0.2-0.3-0.3-0.5-0.3
		c-0.2,0-0.5,0.1-0.7,0.2L157.7,46z M157.8,49c-0.1-0.3-0.2-0.5-0.3-0.7c-0.1-0.1-0.2-0.3-0.3-0.4c-0.1-0.1-0.2-0.2-0.4-0.3
		c-0.1-0.1-0.3-0.1-0.4-0.1s-0.3,0-0.4,0.1c-0.2,0.1-0.3,0.3-0.4,0.5c0,0.2,0.1,0.4,0.2,0.6c0.1,0.2,0.3,0.4,0.5,0.5
		c0.2,0.1,0.4,0.2,0.5,0.3L157.8,49z"/>
	<path d="M157.2,51.9c0.1,0.2,0.2,0.3,0.3,0.4c0.1,0.1,0.2,0.1,0.3,0.2c0.1,0,0.2,0,0.4-0.1c0.1-0.1,0.3-0.1,0.5-0.2l5.3-2.8
		c0.3-0.1,0.4-0.3,0.5-0.4s0-0.4-0.2-0.7l0.1-0.1l1,1.5l-6.4,3.4c-0.2,0.1-0.4,0.2-0.5,0.3c-0.1,0.1-0.2,0.2-0.3,0.3
		c0,0.1-0.1,0.2,0,0.3c0,0.1,0.1,0.3,0.2,0.5l-0.1,0.1c-0.1-0.2-0.2-0.4-0.3-0.6c-0.1-0.2-0.2-0.4-0.3-0.6c-0.1-0.2-0.2-0.4-0.3-0.6
		s-0.2-0.4-0.3-0.6L157.2,51.9z"/>
	<path d="M167.6,62.5c0.2-0.3,0.4-0.5,0.7-0.8c0.2-0.3,0.4-0.5,0.5-0.8c0.1-0.3,0.2-0.6,0.2-0.9c0-0.3,0-0.7-0.2-1
		c-0.2-0.4-0.4-0.8-0.8-1s-0.7-0.4-1.1-0.5c-0.4-0.1-0.9-0.1-1.3-0.1c-0.5,0-0.9,0.1-1.3,0.3c-0.5,0.2-0.9,0.4-1.3,0.7
		c-0.4,0.3-0.7,0.6-0.9,1c-0.2,0.4-0.4,0.7-0.4,1.1c-0.1,0.4,0,0.8,0.2,1.2c0.1,0.4,0.3,0.7,0.5,1c0.2,0.3,0.5,0.6,0.8,0.8l1.4-0.6
		c0.5-0.2,0.6-0.7,0.3-1.5l0.1-0.1c0.1,0.3,0.2,0.6,0.3,0.8c0.1,0.2,0.2,0.5,0.3,0.8c0.1,0.3,0.2,0.6,0.3,0.8
		c0.1,0.3,0.2,0.5,0.4,0.8l-0.1,0.1c-0.1-0.2-0.1-0.3-0.2-0.4c-0.1-0.1-0.2-0.2-0.3-0.3c-0.1-0.1-0.2-0.1-0.4-0.1
		c-0.1,0-0.3,0-0.5,0.1l-1.6,0.6c-0.4-0.4-0.7-0.9-1.1-1.3c-0.3-0.4-0.6-0.9-0.8-1.4c-0.2-0.5-0.3-1-0.3-1.6c0-0.5,0.1-1.1,0.3-1.6
		c0.2-0.5,0.5-1,0.9-1.4c0.4-0.4,0.9-0.7,1.5-1c0.5-0.2,1.1-0.3,1.7-0.2c0.6,0,1.1,0.2,1.6,0.4c0.5,0.2,0.9,0.6,1.3,1
		s0.7,0.9,0.9,1.4c0.1,0.3,0.2,0.6,0.3,0.8c0.1,0.3,0.1,0.5,0.2,0.7c0,0.2,0.1,0.4,0.1,0.6s0,0.4,0.1,0.5c-0.1,0-0.3,0.1-0.5,0.2
		c-0.2,0.1-0.4,0.2-0.6,0.3s-0.4,0.2-0.6,0.3c-0.2,0.1-0.3,0.2-0.4,0.3L167.6,62.5z"/>
	<path d="M163.2,65.7c0.1,0.2,0.1,0.3,0.2,0.4c0.1,0.1,0.2,0.2,0.3,0.2c0.1,0,0.2,0,0.4,0c0.1,0,0.3-0.1,0.6-0.1l5.8-1.7
		c0.3-0.1,0.5-0.2,0.6-0.3s0.1-0.4,0-0.7l0.1,0l0.7,1.6l-6.9,2c-0.2,0.1-0.4,0.1-0.5,0.2c-0.1,0.1-0.2,0.1-0.3,0.2
		c-0.1,0.1-0.1,0.2-0.1,0.3c0,0.1,0,0.3,0.1,0.5l-0.1,0c0-0.2-0.1-0.5-0.2-0.7c-0.1-0.2-0.1-0.5-0.2-0.7c-0.1-0.2-0.1-0.4-0.2-0.6
		c-0.1-0.2-0.1-0.4-0.2-0.6L163.2,65.7z"/>
	<path d="M169.1,70.4c0.1,0.4,0.1,0.7,0.1,1.1c0,0.3-0.1,0.6-0.3,0.9c-0.2,0.3-0.4,0.5-0.6,0.7c-0.3,0.2-0.6,0.3-0.9,0.4
		c-0.3,0.1-0.7,0.1-1,0c-0.3-0.1-0.6-0.2-0.9-0.3c-0.3-0.2-0.5-0.4-0.7-0.7s-0.3-0.6-0.4-1c-0.1-0.4-0.1-0.7-0.1-1.1
		c0-0.3,0.1-0.6,0.3-0.9c0.2-0.3,0.4-0.5,0.6-0.7c0.3-0.2,0.6-0.3,0.9-0.4c0.3-0.1,0.7-0.1,1,0c0.3,0.1,0.6,0.2,0.9,0.3
		c0.3,0.2,0.5,0.4,0.7,0.7C168.9,69.7,169.1,70,169.1,70.4z M168.8,70.3c0-0.2-0.1-0.4-0.3-0.5c-0.1-0.1-0.3-0.2-0.5-0.3
		c-0.2-0.1-0.4-0.1-0.6-0.1c-0.2,0-0.5,0-0.7,0.1c-0.2,0.1-0.5,0.1-0.7,0.3c-0.2,0.1-0.4,0.3-0.6,0.5c-0.2,0.2-0.3,0.4-0.4,0.6
		c-0.1,0.2-0.1,0.5,0,0.8c0,0.2,0.1,0.4,0.3,0.5c0.1,0.1,0.3,0.2,0.5,0.3c0.2,0.1,0.4,0.1,0.6,0.1c0.2,0,0.5,0,0.7-0.1
		c0.2-0.1,0.5-0.1,0.7-0.3s0.4-0.3,0.6-0.5c0.2-0.2,0.3-0.4,0.4-0.6C168.8,70.8,168.8,70.6,168.8,70.3z"/>
	<path d="M169.8,73.4c0,0.2,0,0.3,0,0.4c0,0.1,0,0.2,0,0.3c0,0.1,0,0.2,0,0.3c0,0.1,0,0.2,0,0.4c0,0.2,0.1,0.4,0.1,0.6
		s0.1,0.4,0.1,0.6l-0.2,0c0-0.2-0.1-0.3-0.2-0.4c-0.1-0.1-0.3-0.2-0.5-0.2c-0.1,0-0.3,0.1-0.6,0.2c-0.2,0.1-0.5,0.3-0.7,0.4
		c-0.2,0.2-0.5,0.3-0.7,0.5c-0.2,0.2-0.4,0.3-0.6,0.4l2.5,0.9c0.1-0.1,0.2-0.1,0.3-0.2s0.2-0.2,0.3-0.3c0.1-0.1,0.1-0.2,0.2-0.3
		c0-0.1,0.1-0.3,0.1-0.4l0.1,0c0,0.1,0,0.2,0,0.2c0,0.1,0,0.2,0,0.2c0,0.1,0,0.2,0,0.3c0,0.1,0,0.3,0.1,0.4c0,0.3,0.1,0.5,0.1,0.7
		c0,0.2,0.1,0.5,0.1,0.7l-0.1,0c0-0.2-0.1-0.4-0.2-0.5c-0.1-0.1-0.3-0.2-0.5-0.2c-0.1,0-0.3,0.1-0.5,0.2c-0.2,0.1-0.5,0.3-0.8,0.4
		c-0.3,0.2-0.5,0.3-0.8,0.5c-0.2,0.2-0.4,0.3-0.5,0.3c0.1,0,0.3,0.1,0.6,0.2c0.3,0.1,0.6,0.2,0.8,0.3c0.3,0.1,0.6,0.2,0.8,0.2
		c0.3,0.1,0.4,0.1,0.6,0.1c0.2,0,0.4-0.1,0.5-0.2c0.1-0.1,0.1-0.3,0.1-0.5l0.1,0c0,0.2,0,0.4,0,0.5c0,0.2,0,0.4,0.1,0.5
		c0,0.2,0,0.3,0.1,0.5c0,0.2,0.1,0.3,0.1,0.5l-0.1,0c0-0.2-0.1-0.3-0.3-0.5c-0.1-0.1-0.3-0.2-0.5-0.3c-0.2-0.1-0.4-0.2-0.6-0.2
		c-0.2-0.1-0.4-0.1-0.6-0.2l-2.8-0.9l0-0.3l2.9-1.8l-3.3-1.1l0-0.3c0.3-0.1,0.5-0.3,0.8-0.5s0.5-0.3,0.8-0.5s0.5-0.3,0.8-0.5
		c0.3-0.2,0.5-0.3,0.7-0.5c0.3-0.2,0.5-0.4,0.7-0.6s0.3-0.5,0.3-0.7L169.8,73.4z"/>
	<path d="M166.5,97.5c0,0.1-0.1,0.2-0.1,0.3c0,0.1-0.1,0.2-0.1,0.3c0,0.1-0.1,0.2-0.1,0.4c0,0.1-0.1,0.2-0.1,0.4
		c-0.1,0.5-0.1,0.9-0.1,1.3c0,0.4,0.1,0.7,0.2,1.1c0.1,0.3,0.3,0.7,0.5,1c0.2,0.3,0.5,0.6,0.9,1l-0.1,0.1l-2.2-1.4
		c0-0.1,0.1-0.3,0.1-0.4c0-0.1,0.1-0.3,0.1-0.4l0.6-4.5c0-0.2,0.1-0.5,0.1-0.7c0-0.2,0-0.5,0.1-0.7l0.1,0c0,0.3,0,0.5,0,0.7
		c0,0.2,0.1,0.3,0.2,0.4c0.1,0.1,0.3,0.2,0.5,0.2c0.2,0,0.5,0.1,0.8,0.1l4,0.6c0.3,0,0.6,0.1,0.8,0.1c0.2,0,0.4,0,0.5-0.1
		s0.3-0.2,0.3-0.3c0.1-0.2,0.2-0.4,0.2-0.7l0.1,0c0,0.3-0.1,0.5-0.1,0.8c0,0.2-0.1,0.5-0.1,0.7c0,0.3-0.1,0.5-0.1,0.8
		c0,0.3-0.1,0.6-0.1,1c-0.1,0.6-0.2,1.1-0.2,1.7c-0.1,0.6-0.1,1.1-0.2,1.7c-0.1,0-0.2,0-0.3-0.1c-0.1,0-0.2,0-0.2,0l-0.5-0.1
		c-0.2,0-0.4,0-0.5,0c-0.2,0-0.4,0-0.6,0l0-0.2c0.4-0.1,0.7-0.1,1-0.3s0.5-0.3,0.6-0.5s0.3-0.4,0.4-0.7c0.1-0.3,0.1-0.5,0.2-0.8
		c0.1-0.6,0.1-1.1,0.2-1.7l-3-0.4c0,0.2,0,0.3-0.1,0.5c0,0.1,0,0.3-0.1,0.5c-0.1,0.5,0,1,0.1,1.3c0.2,0.4,0.5,0.6,1.1,0.8l0,0.1
		c-0.3,0-0.6-0.1-0.9-0.1c-0.3,0-0.6-0.1-0.8-0.1c-0.3,0-0.6-0.1-0.9-0.1c-0.3,0-0.6-0.1-0.9-0.1l0-0.1c0.3,0,0.6-0.1,0.8-0.1
		c0.2-0.1,0.4-0.2,0.5-0.3c0.1-0.1,0.2-0.3,0.3-0.5c0.1-0.2,0.1-0.5,0.2-0.8l0.1-0.8L166.5,97.5z"/>
	<path d="M165.7,104.7c-0.3-0.1-0.4,0-0.6,0.1c-0.1,0.1-0.2,0.3-0.3,0.5l-0.1,0c0.1-0.2,0.1-0.5,0.2-0.7c0.1-0.2,0.1-0.5,0.2-0.8
		c0-0.2,0.1-0.4,0.1-0.5c0-0.2,0.1-0.4,0.1-0.6l0.1,0c0,0.3,0,0.5,0,0.7c0,0.2,0.2,0.3,0.4,0.3l2.4,0.6c0.2,0,0.3,0.1,0.5,0.1
		c0.1,0,0.2,0,0.3-0.1s0.1-0.1,0.2-0.2c0-0.1,0.1-0.2,0.1-0.4l0.1,0l-0.2,1.8l-0.6-0.2c0.1,0.3,0.2,0.6,0.3,0.9
		c0.1,0.3,0.1,0.6,0,0.9c-0.1,0.3-0.2,0.5-0.3,0.7c-0.2,0.2-0.4,0.3-0.6,0.4c0,0.1,0.1,0.2,0.1,0.4c0,0.1,0.1,0.3,0.1,0.4
		c0,0.1,0,0.3,0.1,0.4s0,0.3,0,0.4c-0.1,0.5-0.4,0.8-0.7,1c-0.3,0.2-0.8,0.2-1.3,0.1l-2.1-0.5c-0.3-0.1-0.4,0-0.6,0.1
		c-0.1,0.1-0.2,0.3-0.4,0.6l-0.1,0c0.1-0.2,0.2-0.5,0.2-0.7c0.1-0.3,0.1-0.5,0.2-0.8c0-0.2,0.1-0.3,0.1-0.5c0-0.2,0.1-0.3,0.1-0.5
		l0.1,0c0,0.2,0,0.4,0.1,0.6c0,0.2,0.2,0.3,0.5,0.3l1.9,0.5c0.4,0.1,0.7,0.1,0.9-0.1c0.2-0.1,0.4-0.3,0.5-0.6
		c0.1-0.5,0.1-0.9-0.1-1.2l-2.7-0.7c-0.3-0.1-0.4,0-0.6,0.1c-0.1,0.1-0.2,0.3-0.3,0.5l-0.1,0c0.1-0.2,0.1-0.5,0.2-0.7
		c0.1-0.2,0.1-0.5,0.2-0.8c0-0.2,0.1-0.3,0.1-0.5c0-0.2,0.1-0.3,0.1-0.5l0.1,0c0,0.2,0,0.4,0.1,0.6c0,0.2,0.2,0.3,0.5,0.3l1.9,0.5
		c0.4,0.1,0.7,0.1,0.9,0.1c0.2-0.1,0.4-0.3,0.5-0.7c0-0.1,0-0.2,0.1-0.3c0-0.1,0-0.2,0-0.3c0-0.1-0.1-0.2-0.1-0.3
		c-0.1-0.1-0.1-0.2-0.2-0.4L165.7,104.7z"/>
	<path d="M170.8,114.4l-0.4,1.8c-0.7-0.3-1.4-0.5-2.1-0.8c-0.7-0.3-1.4-0.5-2.1-0.8c0.1,0.3,0.1,0.5,0.1,0.8s-0.1,0.6-0.2,0.9
		c-0.1,0.3-0.3,0.6-0.5,0.9c-0.2,0.2-0.4,0.4-0.7,0.6c-0.3,0.1-0.5,0.2-0.8,0.2s-0.6,0-0.9-0.1c-0.4-0.1-0.7-0.3-1-0.6
		c-0.2-0.2-0.4-0.5-0.6-0.8c-0.1-0.3-0.2-0.6-0.2-0.9c0-0.3,0.1-0.7,0.2-1c0.1-0.2,0.2-0.5,0.4-0.7s0.3-0.4,0.4-0.6
		c0.2-0.2,0.3-0.3,0.4-0.4c0.1-0.1,0.2-0.2,0.3-0.2l6.4,2.4c0.3,0.1,0.5,0.1,0.6,0c0.2-0.1,0.3-0.3,0.4-0.6L170.8,114.4z
		 M163.4,116.8c0.3,0.1,0.5,0.2,0.8,0.2c0.3,0,0.5,0,0.7-0.1c0.2-0.1,0.4-0.2,0.6-0.3s0.3-0.3,0.4-0.5c0.1-0.2,0.1-0.5,0.1-0.7
		c0-0.2,0-0.4-0.1-0.6c-0.1-0.2-0.3-0.3-0.5-0.5c-0.2-0.2-0.5-0.3-0.9-0.4c-0.4-0.1-0.7-0.2-0.9-0.3s-0.5,0-0.7,0
		c-0.2,0.1-0.3,0.2-0.5,0.3s-0.2,0.4-0.3,0.6c-0.1,0.2-0.1,0.4-0.1,0.6c0,0.2,0.1,0.4,0.2,0.6c0.1,0.2,0.3,0.4,0.5,0.5
		C162.9,116.6,163.2,116.7,163.4,116.8z"/>
	<path d="M160.8,117.6c-0.1,0.3-0.1,0.5-0.1,0.6s0.1,0.3,0.4,0.4l2.5,1.2c0.2,0.1,0.4,0.1,0.5,0c0.1-0.1,0.2-0.3,0.3-0.5l0.1,0.1
		l-0.5,1.7l-0.6-0.3c0,0.1,0,0.2,0.1,0.4c0,0.2,0.1,0.3,0.1,0.5c0,0.2,0.1,0.3,0.1,0.5c0,0.2,0,0.3-0.1,0.4
		c-0.1,0.3-0.3,0.5-0.5,0.5c-0.2,0.1-0.5,0-0.8-0.1l-0.1-1.1c0,0,0.1,0.1,0.1,0.1c0,0,0.1,0.1,0.2,0.1c0.1,0,0.2,0.1,0.3,0
		c0.1,0,0.2-0.1,0.3-0.2c0-0.1,0.1-0.2,0.1-0.3c0-0.1,0-0.3-0.1-0.4c0-0.1-0.1-0.3-0.1-0.4c0-0.1-0.1-0.2-0.1-0.3l-2.3-1.1
		c-0.2-0.1-0.4-0.1-0.6,0c-0.1,0.1-0.3,0.3-0.5,0.5l-0.1-0.1c0.1-0.2,0.3-0.5,0.4-0.7c0.1-0.2,0.2-0.5,0.3-0.7
		c0.1-0.2,0.1-0.3,0.2-0.5c0.1-0.2,0.1-0.3,0.2-0.5L160.8,117.6z"/>
	<path d="M161.7,123.8c0.2,0.2,0.3,0.3,0.4,0.5c0.1,0.2,0.1,0.3,0.1,0.5s0,0.3-0.1,0.5c-0.1,0.2-0.2,0.4-0.3,0.6
		c-0.1,0.2-0.2,0.4-0.4,0.5c-0.1,0.2-0.3,0.3-0.5,0.4c-0.2,0.1-0.4,0.1-0.6,0.2c-0.2,0-0.4,0-0.6-0.2l-1.9-1.1
		c-0.1-0.1-0.3-0.1-0.4-0.1c-0.1,0-0.2,0.1-0.3,0.2c-0.1,0.1-0.1,0.3-0.1,0.4c0,0.2,0,0.3,0.1,0.4l-0.2,0c0-0.1-0.1-0.2-0.1-0.4
		c0-0.1-0.1-0.3-0.1-0.4c0-0.2,0-0.3,0-0.4c0-0.1,0-0.3,0.1-0.4c0-0.1,0.1-0.1,0.2-0.2c0.1-0.1,0.2-0.1,0.3-0.1
		c0.1,0,0.2-0.1,0.3-0.1c0.1,0,0.2,0,0.3-0.1c0-0.3,0-0.6,0-1c0-0.4,0.1-0.7,0.3-0.9c0.1-0.1,0.2-0.3,0.3-0.4
		c0.1-0.1,0.3-0.2,0.4-0.2s0.3-0.1,0.5-0.1c0.2,0,0.3,0.1,0.5,0.1c0.3,0.2,0.5,0.4,0.6,0.6c0.1,0.3,0.1,0.5,0.1,0.8
		c0,0.3-0.1,0.6-0.3,1c-0.1,0.3-0.3,0.7-0.5,1l0.8,0.4c0.3,0.1,0.5,0.2,0.7,0.1c0.2-0.1,0.4-0.3,0.5-0.5c0.1-0.2,0.1-0.4,0-0.6
		c-0.1-0.2-0.3-0.4-0.5-0.5L161.7,123.8z M159.2,125.4c0.2-0.2,0.3-0.4,0.5-0.7c0.1-0.1,0.1-0.3,0.2-0.4c0-0.2,0.1-0.3,0-0.4
		c0-0.1-0.1-0.3-0.1-0.4c-0.1-0.1-0.2-0.2-0.3-0.3c-0.2-0.1-0.5-0.1-0.6,0c-0.2,0.1-0.3,0.3-0.5,0.5c-0.1,0.2-0.2,0.5-0.2,0.7
		c0,0.2,0,0.4,0,0.5L159.2,125.4z"/>
	<path d="M156.1,131.5c0.2,0,0.4,0.1,0.7,0.1c0.2,0,0.4,0,0.7,0c0.2,0,0.4-0.1,0.6-0.2c0.2-0.1,0.3-0.3,0.5-0.5
		c0.1-0.2,0.2-0.4,0.2-0.6c0-0.2-0.1-0.4-0.2-0.6c-0.1-0.2-0.2-0.4-0.4-0.5c-0.2-0.2-0.4-0.3-0.5-0.4c-0.2-0.1-0.5-0.2-0.7-0.3
		c-0.2-0.1-0.5-0.1-0.7,0c-0.2,0-0.5,0.1-0.7,0.3c-0.2,0.1-0.4,0.3-0.5,0.6c-0.2,0.2-0.3,0.5-0.3,0.8c-0.1,0.3-0.1,0.6-0.1,0.9
		l-0.3,0c-0.1-0.5-0.1-0.9,0-1.3c0.1-0.4,0.2-0.7,0.4-1.1c0.2-0.3,0.4-0.5,0.6-0.6c0.3-0.2,0.5-0.3,0.8-0.3c0.3-0.1,0.6-0.1,0.9,0
		c0.3,0,0.6,0.2,0.9,0.3c0.3,0.2,0.5,0.4,0.7,0.7c0.2,0.3,0.3,0.5,0.4,0.8c0.1,0.3,0.1,0.6,0,0.9c0,0.3-0.2,0.6-0.3,0.9
		c-0.2,0.3-0.4,0.5-0.5,0.7c-0.2,0.2-0.4,0.4-0.6,0.6l-1.6-0.9L156.1,131.5z"/>
	<path d="M154.8,133.3c-0.3-0.2-0.6-0.4-0.9-0.5s-0.5-0.1-0.8-0.1c-0.2,0-0.4,0.1-0.6,0.2c-0.2,0.1-0.3,0.2-0.4,0.4
		c-0.2,0.3-0.3,0.5-0.4,0.8c-0.1,0.3-0.1,0.6,0,0.9l-0.3,0c-0.1-0.5-0.1-0.9,0-1.3c0.1-0.4,0.2-0.8,0.5-1.2c0.2-0.3,0.4-0.5,0.7-0.6
		c0.3-0.1,0.6-0.2,0.8-0.2c0.3,0,0.6,0,0.9,0.1c0.3,0.1,0.6,0.2,0.8,0.4c0.2,0.2,0.5,0.4,0.6,0.6c0.2,0.3,0.3,0.5,0.4,0.8
		c0.1,0.3,0.1,0.6,0,0.9s-0.2,0.6-0.4,0.9c-0.4,0.5-0.8,0.8-1.3,0.9c-0.5,0.1-1.1,0-1.7-0.4L154.8,133.3z M153.7,135.4
		c0.2,0.1,0.4,0.2,0.5,0.3c0.2,0.1,0.3,0.1,0.5,0.1c0.1,0,0.3,0,0.4-0.1c0.1-0.1,0.3-0.2,0.4-0.4c0.1-0.1,0.2-0.3,0.2-0.4
		c0-0.2,0-0.3,0-0.5c0-0.2-0.1-0.3-0.2-0.4c-0.1-0.1-0.2-0.3-0.3-0.3L153.7,135.4z"/>
	<path d="M154.4,142.5c-0.2,0.2-0.5,0.5-0.7,0.7c-0.2,0.2-0.5,0.5-0.7,0.7c-0.2,0.2-0.4,0.5-0.6,0.7c-0.2,0.2-0.4,0.5-0.6,0.7
		l-0.1-0.1c0.1-0.1,0.1-0.2,0.2-0.3c0.1-0.1,0.1-0.2,0.1-0.3c0-0.1,0-0.2,0-0.3c0-0.1-0.1-0.2-0.2-0.3c-0.1-0.1-0.2-0.1-0.3-0.2
		c-0.2,0-0.4-0.1-0.6-0.1l-2.8-0.4l0.6,2.6c0.1,0.4,0.2,0.7,0.4,0.9c0.2,0.2,0.4,0.2,0.6,0.2c0.2,0,0.4-0.1,0.6-0.3l0.1,0.1
		c-0.2,0.2-0.4,0.4-0.6,0.6c-0.2,0.2-0.4,0.4-0.6,0.6c-0.2,0.2-0.4,0.4-0.5,0.6c-0.2,0.2-0.3,0.4-0.5,0.6l-0.1-0.1
		c0.2-0.2,0.3-0.5,0.3-0.8c0-0.3,0.1-0.5,0.1-0.8c0-0.3,0-0.5-0.1-0.8c-0.1-0.2-0.1-0.5-0.1-0.7l-0.6-2.8l-1.3-1.2
		c-0.2-0.2-0.4-0.4-0.6-0.4c-0.2-0.1-0.3-0.1-0.5-0.1c-0.1,0-0.3,0.1-0.5,0.2c-0.2,0.1-0.3,0.2-0.6,0.4l-0.1-0.1
		c0.3-0.2,0.5-0.5,0.8-0.7c0.2-0.2,0.5-0.5,0.7-0.8c0.2-0.2,0.4-0.4,0.6-0.6c0.2-0.2,0.4-0.4,0.6-0.7l0.1,0.1
		c-0.2,0.2-0.3,0.4-0.4,0.6c-0.1,0.2-0.1,0.3-0.1,0.5c0,0.2,0,0.3,0.1,0.5c0.1,0.2,0.3,0.3,0.5,0.5l1.4,1.3l3.5,0.4
		c0.2,0,0.4,0,0.6,0.1c0.2,0,0.4,0,0.6,0c0.2,0,0.4-0.1,0.6-0.1s0.4-0.2,0.6-0.3L154.4,142.5z"/>
	<path d="M143.5,148.7c-0.3,0.2-0.6,0.4-0.9,0.5c-0.3,0.1-0.6,0.2-0.9,0.2s-0.6-0.1-0.9-0.2c-0.3-0.1-0.5-0.4-0.8-0.6
		c-0.2-0.3-0.4-0.6-0.5-0.9c-0.1-0.3-0.1-0.6-0.1-0.9c0-0.3,0.1-0.6,0.3-0.9c0.2-0.3,0.4-0.6,0.7-0.8c0.3-0.2,0.6-0.4,0.9-0.5
		c0.3-0.1,0.6-0.2,0.9-0.2s0.6,0.1,0.9,0.2c0.3,0.1,0.5,0.4,0.8,0.6c0.2,0.3,0.4,0.6,0.5,0.9c0.1,0.3,0.1,0.6,0.1,0.9
		c0,0.3-0.1,0.6-0.3,0.9C144,148.2,143.8,148.5,143.5,148.7z M143.4,148.3c0.2-0.1,0.3-0.3,0.3-0.5c0.1-0.2,0.1-0.4,0-0.6
		c0-0.2-0.1-0.4-0.2-0.6s-0.2-0.4-0.4-0.6c-0.2-0.2-0.4-0.4-0.6-0.5c-0.2-0.2-0.5-0.3-0.7-0.3s-0.5-0.1-0.7,0
		c-0.2,0-0.5,0.2-0.7,0.4c-0.2,0.1-0.3,0.3-0.3,0.5c-0.1,0.2-0.1,0.4,0,0.6c0,0.2,0.1,0.4,0.2,0.6c0.1,0.2,0.2,0.4,0.4,0.6
		c0.2,0.2,0.4,0.4,0.6,0.5c0.2,0.2,0.5,0.3,0.7,0.3s0.5,0.1,0.7,0C143,148.6,143.2,148.5,143.4,148.3z"/>
	<path d="M137.6,149.5c-0.2-0.3-0.4-0.4-0.7-0.5c-0.2,0-0.5,0-0.8,0.2c-0.2,0.1-0.4,0.3-0.5,0.6c-0.1,0.2-0.2,0.5-0.2,0.6l1.5,2.1
		c0.1,0.1,0.1,0.2,0.2,0.2c0.1,0.1,0.1,0.1,0.2,0.1s0.2,0,0.3,0c0.1,0,0.3-0.1,0.5-0.2l0.1,0.1l-1.4,1.2l-2.2-3
		c-0.2-0.2-0.4-0.4-0.5-0.4c-0.2,0-0.4,0.1-0.6,0.2l-0.1-0.1c0.2-0.2,0.5-0.4,0.7-0.6c0.2-0.2,0.5-0.4,0.7-0.6l0.4,0.5
		c0.1-0.3,0.2-0.7,0.4-1c0.2-0.3,0.4-0.6,0.7-0.8c0.3-0.2,0.6-0.3,1-0.3c0.3,0,0.7,0.2,0.9,0.6l1.5,2c0.1,0.2,0.3,0.3,0.4,0.3
		c0.2,0,0.4-0.1,0.7-0.3l0.1,0.1l-1.4,1.2L137.6,149.5z"/>
	<path d="M133.1,151c-0.2,0.2-0.3,0.3-0.4,0.5c-0.1,0.1,0,0.3,0.1,0.6l1.5,2.4c0.1,0.2,0.3,0.3,0.4,0.2c0.2,0,0.3-0.1,0.5-0.2
		l0.1,0.1l-1.3,1.1l-0.4-0.6c0,0.1-0.1,0.2-0.1,0.4c-0.1,0.2-0.1,0.3-0.2,0.5c-0.1,0.2-0.1,0.3-0.2,0.4c-0.1,0.1-0.2,0.2-0.3,0.3
		c-0.3,0.2-0.5,0.2-0.7,0.2c-0.2-0.1-0.4-0.2-0.6-0.5l0.6-0.9c0,0.1,0,0.1,0.1,0.2c0,0.1,0.1,0.1,0.1,0.2c0.1,0.1,0.1,0.2,0.3,0.2
		c0.1,0,0.2,0,0.4,0c0.1-0.1,0.2-0.1,0.2-0.2s0.1-0.2,0.2-0.3c0-0.1,0.1-0.3,0.1-0.4c0-0.1,0.1-0.2,0.1-0.3l-1.3-2.2
		c-0.1-0.2-0.3-0.3-0.5-0.3c-0.2,0-0.4,0.1-0.7,0.2l-0.1-0.1c0.2-0.1,0.5-0.3,0.7-0.4c0.2-0.1,0.5-0.3,0.7-0.4
		c0.2-0.1,0.3-0.2,0.4-0.3c0.1-0.1,0.3-0.2,0.4-0.3L133.1,151z"/>
	<path d="M129.8,162c-0.3,0.1-0.5,0.2-0.7,0.3c-0.2,0.1-0.5,0.2-0.8,0.3c-0.2,0.1-0.3,0.1-0.5,0.2c-0.1,0.1-0.3,0.2-0.5,0.2
		c-0.2-0.1-0.4-0.2-0.7-0.4c-0.3-0.2-0.7-0.4-1.2-0.6c-0.4-0.2-0.9-0.4-1.4-0.7c-0.5-0.2-1-0.5-1.4-0.7c-0.5-0.2-0.9-0.5-1.3-0.7
		c-0.4-0.2-0.7-0.4-0.9-0.5l0,0c0.1,0.2,0.2,0.4,0.3,0.7c0.1,0.2,0.2,0.4,0.3,0.7l0.6,1.3c0.2,0.5,0.4,0.9,0.6,1.2
		c0.2,0.3,0.4,0.6,0.6,0.8c0.2,0.2,0.4,0.3,0.7,0.4c0.2,0,0.5,0,0.8-0.1l0.1,0.1c-0.3,0.1-0.5,0.2-0.8,0.3c-0.3,0.1-0.5,0.2-0.8,0.3
		c-0.2,0.1-0.5,0.2-0.7,0.3c-0.2,0.1-0.5,0.2-0.7,0.4l-0.1-0.1c0.4-0.3,0.7-0.5,0.8-0.8c0.1-0.3,0-0.6-0.2-1.1l-2.6-5.8l0.4-0.2
		c0.7,0.4,1.4,0.9,2.1,1.3c0.7,0.4,1.4,0.8,2.1,1.1c0.7,0.3,1.3,0.6,1.9,0.9c0.6,0.3,1.2,0.5,1.7,0.7c-0.1-0.2-0.2-0.4-0.2-0.6
		c-0.1-0.2-0.2-0.4-0.2-0.6l-0.9-1.9c-0.3-0.6-0.5-1.2-0.7-1.5c-0.2-0.4-0.4-0.6-0.6-0.8c-0.2-0.2-0.4-0.2-0.6-0.2
		c-0.2,0-0.5,0.1-0.9,0.2l-0.1-0.1c0.4-0.2,0.7-0.3,1.1-0.5c0.4-0.1,0.7-0.3,1.1-0.5c0.2-0.1,0.4-0.2,0.6-0.3s0.4-0.2,0.6-0.3
		l0.1,0.1c-0.2,0.1-0.4,0.3-0.6,0.4c-0.2,0.1-0.3,0.2-0.4,0.4c-0.1,0.1-0.1,0.3-0.1,0.5c0,0.2,0.1,0.4,0.2,0.6l2.1,5.1
		c0.3,0.1,0.6,0.1,1,0.1c0.3,0,0.7-0.1,1-0.1L129.8,162z"/>
	<path d="M118.5,162.1c0,0.3,0,0.5-0.1,0.6s-0.2,0.3-0.3,0.4c-0.1,0.1-0.3,0.2-0.4,0.3c-0.2,0.1-0.4,0.2-0.6,0.2
		c-0.2,0.1-0.4,0.1-0.6,0.1c-0.2,0-0.4,0-0.6,0c-0.2,0-0.4-0.1-0.5-0.3c-0.1-0.1-0.3-0.3-0.3-0.6l-0.7-2.1c0-0.1-0.1-0.3-0.2-0.3
		c-0.1-0.1-0.2-0.1-0.4,0c-0.2,0-0.3,0.1-0.4,0.3c-0.1,0.1-0.2,0.2-0.3,0.4L113,161c0.1-0.1,0.1-0.2,0.2-0.4
		c0.1-0.1,0.1-0.3,0.2-0.4c0.1-0.1,0.2-0.3,0.3-0.4c0.1-0.1,0.2-0.2,0.3-0.2c0.1,0,0.2,0,0.3,0c0.1,0,0.2,0.1,0.3,0.1
		c0.1,0,0.2,0.1,0.3,0.1c0.1,0.1,0.2,0.1,0.2,0.1c0.2-0.2,0.4-0.5,0.7-0.7c0.3-0.2,0.5-0.4,0.8-0.5c0.2-0.1,0.3-0.1,0.5-0.1
		c0.2,0,0.3,0,0.5,0.1c0.1,0.1,0.3,0.1,0.4,0.3c0.1,0.1,0.2,0.3,0.3,0.4c0.1,0.3,0.1,0.6,0,0.8s-0.3,0.5-0.5,0.7
		c-0.2,0.2-0.5,0.4-0.9,0.5c-0.3,0.2-0.7,0.3-1,0.4l0.3,0.9c0.1,0.3,0.3,0.5,0.5,0.6c0.2,0.1,0.5,0.1,0.7,0c0.2-0.1,0.3-0.2,0.4-0.5
		c0-0.2,0-0.5-0.1-0.7L118.5,162.1z M115.6,161.5c0.3,0,0.5-0.1,0.8-0.2c0.1,0,0.3-0.1,0.4-0.2c0.1-0.1,0.2-0.2,0.3-0.3
		c0.1-0.1,0.2-0.2,0.2-0.4s0-0.3,0-0.5c-0.1-0.3-0.2-0.4-0.4-0.5c-0.2-0.1-0.4,0-0.7,0c-0.2,0.1-0.4,0.2-0.6,0.4s-0.3,0.3-0.4,0.4
		L115.6,161.5z"/>
	<path d="M113.9,164.2l0,0.2c-0.2,0.1-0.4,0.2-0.6,0.4c-0.1,0.2-0.3,0.4-0.3,0.6c-0.1,0.2-0.1,0.4-0.2,0.7c0,0.2-0.1,0.5-0.1,0.7
		l-0.2,0l-0.4-1.7l-1.6,0.4l-0.1-0.3l1.6-0.4l-0.7-2.7c0-0.1-0.1-0.2-0.1-0.3c0-0.1-0.1-0.2-0.1-0.2c-0.1-0.1-0.1-0.1-0.2-0.1
		c-0.1,0-0.2,0-0.3,0c-0.2,0.1-0.4,0.2-0.5,0.3c-0.1,0.1-0.2,0.3-0.4,0.5l-0.1-0.1c0.1-0.2,0.2-0.3,0.3-0.5c0.1-0.2,0.2-0.3,0.3-0.4
		c0.1-0.1,0.2-0.2,0.4-0.3c0.1-0.1,0.3-0.2,0.5-0.2c0.3-0.1,0.6,0,0.7,0.1c0.2,0.2,0.3,0.4,0.4,0.7l0.8,3.1L113.9,164.2z"/>
	<path d="M107.7,163c-0.1-0.3-0.2-0.6-0.4-0.7c-0.2-0.1-0.5-0.2-0.8-0.1c-0.3,0-0.5,0.2-0.7,0.3c-0.2,0.2-0.4,0.3-0.5,0.5l0.5,2.5
		c0,0.1,0,0.2,0.1,0.3c0,0.1,0.1,0.2,0.2,0.2c0.1,0.1,0.2,0.1,0.3,0.1c0.1,0,0.3,0,0.5,0l0,0.1l-1.8,0.5l-0.7-3.6
		c-0.1-0.3-0.2-0.5-0.3-0.6c-0.2-0.1-0.4-0.1-0.7,0l0-0.1c0.3-0.1,0.6-0.1,0.9-0.2c0.3-0.1,0.6-0.1,0.9-0.2l0.1,0.6
		c0.2-0.3,0.5-0.5,0.8-0.7c0.3-0.2,0.6-0.3,0.9-0.4c0.4-0.1,0.7,0,1,0.1c0.3,0.2,0.5,0.5,0.6,0.9l0.5,2.4c0,0.2,0.1,0.4,0.3,0.4
		c0.1,0.1,0.4,0.1,0.7,0.1l0,0.2l-1.8,0.5L107.7,163z"/>
	<path d="M103,162.5c-0.3,0.1-0.5,0.2-0.6,0.3s-0.2,0.3-0.2,0.5l0.3,2.8c0,0.2,0.1,0.4,0.3,0.4c0.2,0,0.4,0,0.6,0l0,0.1l-1.7,0.5
		l-0.1-0.7c-0.1,0.1-0.2,0.2-0.3,0.3c-0.1,0.1-0.2,0.2-0.4,0.4c-0.1,0.1-0.3,0.2-0.4,0.3c-0.1,0.1-0.3,0.1-0.4,0.2
		c-0.3,0-0.6,0-0.7-0.2c-0.2-0.2-0.3-0.4-0.3-0.7l0.9-0.6c0,0.1,0,0.1,0,0.2s0,0.1,0,0.2c0,0.1,0.1,0.2,0.2,0.3
		c0.1,0.1,0.2,0.1,0.3,0.1c0.1,0,0.2-0.1,0.3-0.1c0.1-0.1,0.2-0.2,0.3-0.2c0.1-0.1,0.2-0.2,0.3-0.3c0.1-0.1,0.2-0.2,0.2-0.3
		l-0.3-2.5c0-0.3-0.1-0.4-0.3-0.5c-0.2-0.1-0.4-0.1-0.7-0.1l0-0.1c0.3,0,0.5,0,0.8-0.1c0.3,0,0.5-0.1,0.8-0.1c0.2,0,0.4,0,0.5-0.1
		s0.3-0.1,0.5-0.1L103,162.5z"/>
	<path d="M98.1,166.5c-0.1,0.3-0.1,0.5-0.2,0.6c-0.1,0.2-0.2,0.3-0.4,0.4c-0.1,0.1-0.3,0.1-0.5,0.2c-0.2,0-0.4,0.1-0.6,0.1
		c-0.2,0-0.4,0-0.6,0s-0.4-0.1-0.6-0.2c-0.2-0.1-0.3-0.2-0.4-0.4c-0.1-0.2-0.2-0.4-0.2-0.6l-0.1-2.2c0-0.2-0.1-0.3-0.1-0.4
		c-0.1-0.1-0.2-0.2-0.4-0.2c-0.2,0-0.3,0.1-0.4,0.2c-0.1,0.1-0.2,0.2-0.3,0.3l-0.1-0.1c0.1-0.1,0.2-0.2,0.3-0.3
		c0.1-0.1,0.2-0.2,0.3-0.3c0.1-0.1,0.2-0.2,0.4-0.3c0.1-0.1,0.2-0.1,0.4-0.1c0.1,0,0.2,0,0.3,0.1c0.1,0,0.2,0.1,0.3,0.2
		c0.1,0.1,0.2,0.1,0.2,0.2c0.1,0.1,0.1,0.1,0.2,0.2c0.2-0.2,0.5-0.4,0.8-0.5c0.3-0.2,0.6-0.2,0.9-0.3c0.2,0,0.3,0,0.5,0.1
		c0.2,0,0.3,0.1,0.4,0.2c0.1,0.1,0.2,0.2,0.3,0.4c0.1,0.1,0.1,0.3,0.1,0.5c0,0.3-0.1,0.6-0.2,0.8c-0.2,0.2-0.4,0.4-0.7,0.5
		c-0.3,0.1-0.6,0.2-1,0.3c-0.4,0.1-0.7,0.1-1.1,0.1l0,0.9c0,0.3,0.1,0.5,0.3,0.7c0.2,0.2,0.4,0.2,0.7,0.2c0.2,0,0.4-0.1,0.5-0.3
		c0.1-0.2,0.2-0.5,0.1-0.7L98.1,166.5z M95.4,165.2c0.3,0.1,0.5,0.1,0.8,0.1c0.2,0,0.3,0,0.5-0.1c0.2,0,0.3-0.1,0.4-0.2
		c0.1-0.1,0.2-0.2,0.3-0.3c0.1-0.1,0.1-0.3,0.1-0.5c0-0.3-0.1-0.5-0.3-0.6c-0.2-0.1-0.4-0.2-0.6-0.1c-0.3,0-0.5,0.1-0.7,0.2
		c-0.2,0.1-0.4,0.2-0.4,0.3L95.4,165.2z"/>
	<path d="M93.2,163.3c-0.2,0-0.4,0-0.5,0.1c-0.1,0-0.2,0.1-0.3,0.2s-0.1,0.2-0.1,0.4c0,0.2,0,0.3,0,0.6l-0.1,6c0,0.3,0,0.5,0.1,0.7
		c0.1,0.1,0.3,0.2,0.7,0.2l0,0.1l-1.8,0.2l0.1-7.2c0-0.2,0-0.4,0-0.6s-0.1-0.3-0.1-0.4c-0.1-0.1-0.2-0.2-0.3-0.2
		c-0.1,0-0.3-0.1-0.5-0.1l0-0.1c0.2,0,0.5,0,0.7,0c0.2,0,0.5,0,0.7,0c0.2,0,0.5,0,0.7,0c0.2,0,0.4,0,0.7,0L93.2,163.3z"/>
	<path d="M78.9,167.5c0.1,0.3,0.2,0.6,0.4,0.9c0.1,0.3,0.3,0.6,0.5,0.8c0.2,0.2,0.4,0.5,0.7,0.6c0.3,0.2,0.6,0.3,1,0.3
		c0.5,0.1,0.9,0,1.2-0.2c0.4-0.2,0.7-0.4,1-0.8c0.3-0.3,0.5-0.7,0.7-1.1c0.2-0.4,0.3-0.9,0.4-1.3c0.1-0.5,0.1-1,0-1.4
		c-0.1-0.5-0.2-0.9-0.4-1.2c-0.2-0.4-0.5-0.7-0.8-0.9c-0.3-0.2-0.7-0.4-1.2-0.4c-0.4,0-0.8-0.1-1.1,0c-0.4,0-0.7,0.1-1.1,0.3
		l-0.2,1.5c-0.1,0.5,0.3,0.9,1.1,1l0,0.1c-0.3,0-0.6-0.1-0.8-0.1c-0.3,0-0.5-0.1-0.9-0.1c-0.3,0-0.6-0.1-0.9-0.1
		c-0.3,0-0.6-0.1-0.9-0.1l0-0.1c0.2,0,0.3,0,0.5,0c0.1,0,0.3,0,0.4-0.1c0.1-0.1,0.2-0.1,0.3-0.3c0.1-0.1,0.1-0.3,0.1-0.5l0.2-1.7
		c0.6-0.1,1.1-0.2,1.7-0.3s1.1-0.1,1.6,0c0.5,0.1,1,0.2,1.5,0.5c0.5,0.2,0.9,0.6,1.3,1s0.6,0.9,0.8,1.4s0.2,1.1,0.1,1.8
		c-0.1,0.6-0.3,1.1-0.6,1.6c-0.3,0.5-0.7,0.9-1.1,1.2c-0.4,0.3-0.9,0.5-1.5,0.7c-0.5,0.1-1.1,0.2-1.6,0.1c-0.3,0-0.6-0.1-0.9-0.2
		c-0.3-0.1-0.5-0.1-0.7-0.2c-0.2-0.1-0.4-0.1-0.6-0.2c-0.2-0.1-0.3-0.1-0.5-0.2c0-0.1,0-0.3,0-0.5c0-0.2,0-0.4,0-0.7
		c0-0.2,0-0.5,0-0.7c0-0.2,0-0.4,0-0.5L78.9,167.5z"/>
	<path d="M78.1,162.1c-0.2,0-0.4,0-0.5,0c-0.1,0-0.2,0.1-0.3,0.1c-0.1,0.1-0.1,0.2-0.2,0.3c0,0.1-0.1,0.3-0.1,0.6l-1.2,5.9
		c-0.1,0.3-0.1,0.5,0,0.7c0.1,0.1,0.3,0.2,0.6,0.3l0,0.1l-1.8-0.1l1.5-7.1c0-0.2,0.1-0.4,0.1-0.6c0-0.2,0-0.3,0-0.4
		c0-0.1-0.1-0.2-0.2-0.3c-0.1-0.1-0.3-0.1-0.5-0.2l0-0.1c0.2,0.1,0.5,0.1,0.7,0.2s0.5,0.1,0.7,0.2c0.2,0,0.4,0.1,0.7,0.1
		c0.2,0,0.4,0.1,0.7,0.1L78.1,162.1z"/>
	<path d="M71.2,165.1c-0.4-0.1-0.7-0.2-1-0.4c-0.3-0.2-0.5-0.4-0.7-0.7c-0.2-0.3-0.3-0.5-0.3-0.9c0-0.3,0-0.7,0.1-1
		c0.1-0.3,0.2-0.6,0.4-0.9c0.2-0.3,0.4-0.5,0.7-0.6c0.3-0.1,0.6-0.2,0.9-0.3c0.3,0,0.7,0,1.1,0.1s0.7,0.2,1,0.4
		c0.3,0.2,0.5,0.4,0.7,0.7c0.2,0.3,0.3,0.5,0.3,0.9s0,0.7-0.1,1c-0.1,0.3-0.2,0.6-0.4,0.9c-0.2,0.3-0.4,0.5-0.7,0.6
		c-0.3,0.1-0.6,0.2-0.9,0.3C71.9,165.2,71.6,165.2,71.2,165.1z M71.5,164.8c0.2,0.1,0.4,0.1,0.6,0c0.2-0.1,0.4-0.2,0.5-0.3
		s0.3-0.3,0.4-0.5s0.2-0.4,0.3-0.6c0.1-0.2,0.1-0.5,0.1-0.8c0-0.3,0-0.5-0.1-0.8c-0.1-0.2-0.2-0.5-0.4-0.6c-0.2-0.2-0.4-0.3-0.7-0.4
		c-0.2-0.1-0.4-0.1-0.6,0c-0.2,0.1-0.4,0.2-0.5,0.3c-0.2,0.1-0.3,0.3-0.4,0.5c-0.1,0.2-0.2,0.4-0.3,0.6c-0.1,0.2-0.1,0.5-0.1,0.8
		c0,0.3,0,0.5,0.1,0.8c0.1,0.2,0.2,0.5,0.4,0.6C71,164.6,71.2,164.7,71.5,164.8z"/>
	<path d="M68.2,164.2c-0.1-0.1-0.3-0.1-0.4-0.2c-0.1,0-0.2-0.1-0.3-0.1s-0.2-0.1-0.3-0.1c-0.1,0-0.2-0.1-0.3-0.1
		c-0.2-0.1-0.4-0.1-0.6-0.2c-0.2-0.1-0.4-0.1-0.6-0.2l0.1-0.1c0.2,0.1,0.3,0.1,0.5,0c0.2-0.1,0.3-0.2,0.4-0.3
		c0.1-0.1,0.1-0.3,0.1-0.6c0-0.3,0-0.5,0-0.8c0-0.3-0.1-0.6-0.1-0.9c0-0.3,0-0.5,0-0.7l-2,1.8c0,0.1,0,0.2,0,0.4
		c0,0.1,0,0.2,0.1,0.4c0,0.1,0.1,0.2,0.2,0.3c0.1,0.1,0.2,0.2,0.3,0.2l-0.1,0.1c-0.1,0-0.1-0.1-0.2-0.1s-0.1-0.1-0.2-0.1
		c-0.1,0-0.2-0.1-0.3-0.1c-0.1,0-0.2-0.1-0.4-0.1c-0.2-0.1-0.5-0.2-0.7-0.3c-0.2-0.1-0.5-0.2-0.7-0.2l0.1-0.1c0.2,0.1,0.4,0.1,0.6,0
		c0.2,0,0.3-0.2,0.4-0.4c0-0.1,0.1-0.3,0.1-0.6c0-0.3,0-0.6,0-0.9c0-0.3,0-0.6-0.1-0.9c0-0.3,0-0.5,0-0.6c-0.1,0.1-0.3,0.2-0.5,0.4
		s-0.4,0.4-0.6,0.6c-0.2,0.2-0.4,0.4-0.6,0.6c-0.2,0.2-0.3,0.3-0.3,0.5c-0.1,0.2-0.1,0.4,0,0.5c0.1,0.1,0.2,0.3,0.4,0.4l-0.1,0.1
		c-0.2-0.1-0.3-0.2-0.5-0.2c-0.2-0.1-0.3-0.1-0.5-0.2c-0.2-0.1-0.3-0.1-0.5-0.2c-0.2-0.1-0.3-0.1-0.5-0.2l0.1-0.1c0.2,0,0.4,0,0.5,0
		c0.2-0.1,0.4-0.2,0.5-0.3c0.2-0.1,0.3-0.3,0.5-0.4c0.2-0.2,0.3-0.3,0.5-0.4l2.2-2l0.2,0.1l0.2,3.5l2.6-2.4l0.3,0.1
		c0,0.3,0,0.6,0,0.9s0,0.6,0.1,1s0,0.6,0.1,0.9c0,0.3,0,0.6,0.1,0.8c0,0.3,0.1,0.6,0.2,0.9c0.1,0.3,0.3,0.5,0.5,0.6L68.2,164.2z"/>
	<path d="M48.6,150c0-0.1-0.1-0.1-0.2-0.2c-0.1-0.1-0.2-0.2-0.2-0.2c-0.1-0.1-0.2-0.2-0.3-0.3c-0.1-0.1-0.2-0.2-0.3-0.2
		c-0.4-0.3-0.8-0.5-1.1-0.7c-0.4-0.2-0.7-0.3-1.1-0.3c-0.4,0-0.7,0-1.1,0s-0.8,0.2-1.3,0.3l0-0.2l2.3-1.3c0.1,0.1,0.2,0.2,0.3,0.3
		c0.1,0.1,0.2,0.2,0.3,0.3l3.6,2.7c0.2,0.1,0.4,0.3,0.6,0.4c0.2,0.1,0.4,0.3,0.6,0.4l-0.1,0.1c-0.2-0.2-0.5-0.2-0.6-0.3
		c-0.2,0-0.3,0-0.5,0c-0.1,0.1-0.3,0.2-0.4,0.3c-0.1,0.2-0.3,0.4-0.5,0.7l-2.4,3.2c-0.2,0.3-0.4,0.5-0.5,0.7
		c-0.1,0.2-0.2,0.4-0.2,0.5c0,0.2,0,0.3,0.1,0.5c0.1,0.2,0.3,0.3,0.5,0.5l-0.1,0.1c-0.2-0.2-0.4-0.3-0.6-0.5s-0.4-0.3-0.6-0.5
		c-0.2-0.2-0.4-0.3-0.7-0.5s-0.5-0.4-0.8-0.6c-0.5-0.3-0.9-0.7-1.4-1c-0.5-0.3-0.9-0.7-1.4-1c0.1-0.1,0.1-0.1,0.2-0.2
		c0.1-0.1,0.1-0.1,0.2-0.2l0.3-0.4c0.1-0.1,0.2-0.3,0.3-0.4c0.1-0.2,0.2-0.3,0.3-0.5l0.2,0.1c-0.1,0.4-0.2,0.7-0.2,1
		c0,0.3,0,0.6,0.1,0.8c0.1,0.2,0.3,0.5,0.4,0.7c0.2,0.2,0.4,0.4,0.7,0.6c0.5,0.3,0.9,0.6,1.4,0.9l1.8-2.4c-0.1-0.1-0.3-0.2-0.4-0.3
		s-0.3-0.2-0.4-0.3c-0.4-0.3-0.9-0.5-1.3-0.5c-0.4,0-0.8,0.2-1.2,0.6l-0.1-0.1c0.2-0.2,0.3-0.5,0.5-0.7c0.2-0.2,0.3-0.5,0.5-0.7
		c0.2-0.2,0.3-0.5,0.5-0.7c0.2-0.2,0.3-0.5,0.5-0.7l0.1,0.1c-0.1,0.3-0.2,0.6-0.3,0.8s0,0.4,0,0.6s0.2,0.4,0.3,0.5
		c0.2,0.2,0.4,0.3,0.6,0.5l0.6,0.5L48.6,150z"/>
	<path d="M42.7,145.8c0.2-0.2,0.2-0.4,0.2-0.5c0-0.2-0.2-0.3-0.3-0.6l0.1-0.1c0.2,0.2,0.3,0.3,0.5,0.5c0.2,0.2,0.4,0.4,0.6,0.6
		c0.1,0.1,0.3,0.2,0.4,0.4c0.1,0.1,0.3,0.2,0.4,0.4l-0.1,0.1c-0.2-0.2-0.4-0.3-0.6-0.3c-0.2,0-0.3,0-0.5,0.2l-1.7,1.8
		c-0.1,0.1-0.2,0.3-0.3,0.4c-0.1,0.1-0.1,0.2-0.1,0.3c0,0.1,0,0.2,0.1,0.3c0.1,0.1,0.1,0.2,0.2,0.3l-0.1,0.1l-1.4-1l0.4-0.4
		c-0.3,0-0.6-0.1-0.9-0.2c-0.3-0.1-0.5-0.2-0.8-0.5c-0.2-0.2-0.3-0.4-0.4-0.6c-0.1-0.2-0.1-0.5-0.1-0.8c-0.1,0-0.3,0-0.4-0.1
		c-0.1,0-0.3-0.1-0.4-0.1c-0.1,0-0.3-0.1-0.4-0.2c-0.1-0.1-0.2-0.1-0.3-0.2c-0.4-0.3-0.6-0.7-0.6-1.1c0-0.4,0.2-0.8,0.5-1.2l1.4-1.6
		c0.2-0.2,0.2-0.4,0.2-0.5c-0.1-0.2-0.2-0.4-0.3-0.6l0.1-0.1c0.2,0.2,0.4,0.4,0.5,0.6c0.2,0.2,0.4,0.4,0.6,0.6
		c0.1,0.1,0.3,0.2,0.4,0.3c0.1,0.1,0.3,0.2,0.4,0.3l-0.1,0.1c-0.2-0.1-0.4-0.2-0.5-0.2c-0.2,0-0.3,0-0.5,0.2l-1.4,1.5
		c-0.3,0.3-0.4,0.6-0.4,0.8c0,0.3,0.1,0.5,0.3,0.7c0.4,0.3,0.7,0.5,1.1,0.5l1.9-2.1c0.2-0.2,0.2-0.4,0.2-0.5c0-0.2-0.2-0.3-0.3-0.6
		l0.1-0.1c0.2,0.2,0.3,0.3,0.5,0.5c0.2,0.2,0.4,0.4,0.6,0.6c0.1,0.1,0.3,0.2,0.4,0.3c0.1,0.1,0.3,0.2,0.4,0.3l-0.1,0.1
		c-0.2-0.1-0.4-0.2-0.5-0.2c-0.2,0-0.3,0-0.5,0.2l-1.4,1.5c-0.3,0.3-0.4,0.6-0.5,0.8s0.1,0.5,0.4,0.8c0.1,0.1,0.2,0.1,0.3,0.2
		c0.1,0,0.2,0.1,0.3,0.1c0.1,0,0.2,0,0.3,0c0.1,0,0.3,0,0.4,0L42.7,145.8z"/>
	<path d="M31.7,145.7l-1.4-1.3c0.6-0.5,1.1-1,1.7-1.5c0.6-0.5,1.1-1,1.7-1.5c-0.3-0.1-0.5-0.2-0.8-0.3c-0.2-0.1-0.5-0.3-0.7-0.5
		c-0.2-0.3-0.4-0.5-0.5-0.8c-0.1-0.3-0.2-0.6-0.2-0.9c0-0.3,0.1-0.6,0.2-0.9c0.1-0.3,0.3-0.5,0.6-0.7c0.3-0.3,0.6-0.5,1-0.6
		s0.6-0.1,1-0.1s0.6,0.1,0.9,0.3s0.6,0.4,0.8,0.7c0.2,0.2,0.3,0.4,0.4,0.6c0.1,0.2,0.2,0.5,0.3,0.7c0.1,0.2,0.1,0.4,0.2,0.6
		c0,0.2,0,0.3,0,0.4l-5.2,4.5c-0.2,0.2-0.3,0.4-0.3,0.6c0,0.2,0.1,0.4,0.3,0.6L31.7,145.7z M33.1,138.1c-0.2,0.2-0.4,0.4-0.5,0.6
		s-0.2,0.4-0.3,0.7c0,0.2,0,0.4,0,0.6c0,0.2,0.1,0.4,0.3,0.6c0.2,0.2,0.3,0.3,0.5,0.4c0.2,0.1,0.4,0.1,0.6,0.1s0.4-0.1,0.7-0.2
		c0.2-0.1,0.5-0.3,0.8-0.6c0.3-0.3,0.5-0.5,0.7-0.7s0.2-0.4,0.3-0.6c0-0.2,0-0.4-0.1-0.6c-0.1-0.2-0.2-0.4-0.4-0.6
		c-0.2-0.2-0.3-0.3-0.5-0.4c-0.2-0.1-0.4-0.1-0.6-0.1c-0.2,0-0.4,0.1-0.7,0.2C33.6,137.7,33.4,137.9,33.1,138.1z"/>
	<path d="M33.7,135.4c-0.2-0.2-0.4-0.3-0.5-0.4s-0.3,0-0.5,0.1l-2.2,1.7c-0.2,0.1-0.3,0.3-0.2,0.5c0.1,0.2,0.1,0.3,0.3,0.5l-0.1,0.1
		l-1.3-1.2l0.5-0.4c-0.1,0-0.2-0.1-0.4-0.1s-0.3-0.1-0.5-0.1c-0.2-0.1-0.3-0.1-0.5-0.2c-0.1-0.1-0.3-0.2-0.3-0.3
		c-0.2-0.2-0.3-0.5-0.2-0.7c0-0.2,0.2-0.4,0.4-0.6l1,0.5c-0.1,0-0.1,0-0.2,0.1c-0.1,0-0.1,0.1-0.2,0.1c-0.1,0.1-0.1,0.2-0.2,0.3
		c0,0.1,0,0.2,0.1,0.3c0.1,0.1,0.2,0.2,0.3,0.2s0.2,0.1,0.4,0.1c0.1,0,0.3,0.1,0.4,0.1c0.1,0,0.2,0,0.3,0l2-1.5
		c0.2-0.2,0.3-0.3,0.3-0.5c0-0.2-0.1-0.4-0.3-0.7l0.1-0.1c0.2,0.2,0.3,0.4,0.5,0.7c0.2,0.2,0.3,0.4,0.5,0.7c0.1,0.1,0.2,0.3,0.3,0.4
		c0.1,0.1,0.2,0.3,0.4,0.4L33.7,135.4z"/>
	<path d="M27.8,133.2c-0.2,0.1-0.5,0.1-0.6,0.1c-0.2,0-0.4-0.1-0.5-0.2c-0.1-0.1-0.3-0.2-0.4-0.4c-0.1-0.1-0.2-0.3-0.4-0.5
		c-0.1-0.2-0.2-0.4-0.3-0.6s-0.1-0.4-0.1-0.6c0-0.2,0-0.4,0.1-0.6c0.1-0.2,0.2-0.3,0.4-0.5l1.9-1.2c0.1-0.1,0.2-0.2,0.3-0.3
		c0.1-0.1,0-0.3-0.1-0.4c-0.1-0.1-0.2-0.2-0.3-0.3c-0.1-0.1-0.3-0.1-0.4-0.1l0-0.2c0.1,0,0.2,0,0.4,0.1c0.1,0,0.3,0.1,0.4,0.1
		c0.1,0,0.3,0.1,0.4,0.2s0.2,0.1,0.3,0.2c0,0.1,0.1,0.2,0.1,0.3c0,0.1,0,0.2,0,0.3c0,0.1,0,0.2-0.1,0.3c0,0.1,0,0.2-0.1,0.3
		c0.3,0.1,0.6,0.3,0.9,0.5c0.3,0.2,0.5,0.4,0.7,0.7c0.1,0.1,0.2,0.3,0.2,0.5s0,0.3,0,0.5c0,0.2-0.1,0.3-0.2,0.4
		c-0.1,0.1-0.2,0.3-0.4,0.4c-0.3,0.2-0.5,0.2-0.8,0.2c-0.3,0-0.5-0.2-0.8-0.3c-0.2-0.2-0.5-0.4-0.7-0.7c-0.2-0.3-0.5-0.6-0.7-0.9
		l-0.8,0.5c-0.2,0.2-0.4,0.4-0.4,0.6c0,0.2,0,0.5,0.2,0.7c0.1,0.2,0.3,0.3,0.5,0.2c0.2,0,0.5-0.1,0.7-0.2L27.8,133.2z M27.5,130.2
		c0.1,0.3,0.2,0.5,0.4,0.7c0.1,0.1,0.2,0.2,0.3,0.4c0.1,0.1,0.2,0.2,0.4,0.2s0.3,0.1,0.4,0.1c0.1,0,0.3-0.1,0.4-0.2
		c0.2-0.1,0.3-0.3,0.3-0.6c0-0.2-0.1-0.4-0.2-0.6c-0.1-0.2-0.3-0.4-0.5-0.5c-0.2-0.1-0.4-0.2-0.5-0.2L27.5,130.2z"/>
	<path d="M23.6,124.7c-0.1,0.2-0.3,0.3-0.4,0.5c-0.1,0.2-0.2,0.4-0.3,0.6c-0.1,0.2-0.1,0.4-0.1,0.6s0.1,0.4,0.2,0.6
		c0.1,0.2,0.3,0.4,0.5,0.5c0.2,0.1,0.4,0.1,0.6,0.1c0.2,0,0.4,0,0.7-0.1s0.4-0.2,0.6-0.3c0.2-0.1,0.4-0.3,0.6-0.5
		c0.2-0.2,0.3-0.4,0.4-0.6s0.1-0.5,0.1-0.7c0-0.3-0.1-0.5-0.2-0.7c-0.1-0.3-0.3-0.5-0.6-0.7c-0.2-0.2-0.5-0.3-0.7-0.5l0.1-0.2
		c0.4,0.2,0.8,0.4,1.1,0.6c0.3,0.2,0.6,0.5,0.8,0.9c0.2,0.3,0.2,0.6,0.3,0.9c0,0.3,0,0.6-0.1,0.9c-0.1,0.3-0.2,0.6-0.4,0.8
		c-0.2,0.3-0.4,0.5-0.7,0.6c-0.3,0.2-0.6,0.3-0.9,0.3c-0.3,0-0.6,0-0.9-0.1s-0.6-0.2-0.8-0.4c-0.3-0.2-0.5-0.4-0.6-0.7
		c-0.2-0.3-0.3-0.6-0.4-0.8c-0.1-0.3-0.2-0.5-0.3-0.8l1.5-1L23.6,124.7z"/>
	<path d="M22.7,122.7c0.4-0.2,0.7-0.4,0.9-0.6c0.2-0.2,0.3-0.4,0.4-0.6c0.1-0.2,0.1-0.4,0.1-0.6c0-0.2-0.1-0.4-0.1-0.5
		c-0.1-0.3-0.3-0.6-0.5-0.8c-0.2-0.2-0.5-0.4-0.8-0.5l0.1-0.3c0.5,0.1,0.8,0.3,1.2,0.6c0.3,0.2,0.6,0.6,0.8,1
		c0.1,0.3,0.2,0.6,0.2,0.9c0,0.3-0.1,0.6-0.2,0.9c-0.1,0.3-0.3,0.5-0.5,0.7c-0.2,0.2-0.5,0.4-0.7,0.5c-0.3,0.1-0.6,0.2-0.9,0.2
		s-0.6,0-0.9-0.1c-0.3-0.1-0.5-0.2-0.8-0.4s-0.4-0.4-0.6-0.7c-0.3-0.6-0.3-1.1-0.2-1.6c0.1-0.5,0.5-0.9,1.1-1.3L22.7,122.7z
		 M21.4,120.7c-0.2,0.1-0.3,0.2-0.5,0.3c-0.1,0.1-0.2,0.2-0.3,0.4c-0.1,0.1-0.1,0.3-0.1,0.4c0,0.2,0.1,0.3,0.2,0.5
		c0.1,0.2,0.2,0.3,0.3,0.4c0.1,0.1,0.3,0.2,0.4,0.2c0.2,0,0.3,0,0.5,0c0.2,0,0.3-0.1,0.5-0.1L21.4,120.7z"/>
	<path d="M14.7,118c-0.1-0.3-0.2-0.6-0.3-0.9c-0.1-0.3-0.2-0.6-0.3-0.9c-0.1-0.3-0.2-0.6-0.3-0.9c-0.1-0.3-0.2-0.6-0.3-0.9l0.1,0
		c0,0.1,0.1,0.2,0.2,0.3c0.1,0.1,0.1,0.2,0.2,0.3c0.1,0.1,0.2,0.1,0.3,0.2c0.1,0,0.2,0,0.3,0c0.1,0,0.2-0.1,0.3-0.2
		c0.1-0.1,0.2-0.3,0.4-0.5l1.7-2.3l-2.5-0.7c-0.4-0.1-0.7-0.1-1,0c-0.2,0.1-0.4,0.2-0.4,0.4c-0.1,0.2-0.1,0.5,0,0.7l-0.1,0
		c-0.1-0.3-0.1-0.5-0.2-0.8c-0.1-0.3-0.2-0.5-0.2-0.8c-0.1-0.2-0.2-0.5-0.2-0.7s-0.2-0.5-0.3-0.7l0.1,0c0.1,0.3,0.3,0.5,0.5,0.6
		c0.2,0.2,0.4,0.3,0.7,0.4s0.5,0.2,0.7,0.3c0.2,0.1,0.5,0.1,0.7,0.2l2.8,0.8l1.7-0.5c0.3-0.1,0.5-0.2,0.7-0.3
		c0.2-0.1,0.3-0.2,0.3-0.4c0.1-0.1,0.1-0.3,0.1-0.5c0-0.2,0-0.4-0.1-0.7l0.1,0c0.1,0.3,0.2,0.7,0.3,1c0.1,0.3,0.2,0.7,0.3,1
		c0.1,0.3,0.2,0.6,0.3,0.8c0.1,0.3,0.2,0.6,0.3,0.8l-0.1,0c-0.1-0.2-0.2-0.4-0.3-0.6c-0.1-0.2-0.2-0.3-0.3-0.3
		c-0.1-0.1-0.3-0.1-0.5-0.1c-0.2,0-0.4,0.1-0.7,0.2l-1.8,0.6l-2,2.9c-0.1,0.2-0.2,0.3-0.3,0.5s-0.2,0.3-0.3,0.5
		c-0.1,0.2-0.1,0.4-0.2,0.6c0,0.2-0.1,0.5,0,0.7L14.7,118z"/>
	<path d="M14.5,105.4c-0.1-0.4-0.1-0.7-0.1-1.1c0-0.3,0.1-0.6,0.3-0.9c0.2-0.3,0.4-0.5,0.6-0.7c0.3-0.2,0.6-0.3,0.9-0.4
		c0.4-0.1,0.7-0.1,1,0c0.3,0.1,0.6,0.2,0.8,0.4c0.3,0.2,0.5,0.4,0.6,0.7c0.2,0.3,0.3,0.6,0.4,1c0.1,0.4,0.1,0.7,0.1,1.1
		c0,0.3-0.1,0.6-0.3,0.9c-0.2,0.3-0.4,0.5-0.6,0.7c-0.3,0.2-0.6,0.3-0.9,0.4c-0.4,0.1-0.7,0.1-1,0c-0.3-0.1-0.6-0.2-0.8-0.4
		c-0.3-0.2-0.5-0.4-0.6-0.7C14.7,106.2,14.5,105.8,14.5,105.4z M14.9,105.6c0,0.2,0.1,0.4,0.3,0.5c0.1,0.1,0.3,0.2,0.5,0.3
		c0.2,0.1,0.4,0.1,0.6,0.1c0.2,0,0.5,0,0.7-0.1c0.3-0.1,0.5-0.1,0.7-0.3c0.2-0.1,0.4-0.3,0.6-0.5c0.2-0.2,0.3-0.4,0.4-0.6
		c0.1-0.2,0.1-0.5,0-0.8c0-0.2-0.1-0.4-0.3-0.5c-0.1-0.1-0.3-0.2-0.5-0.3s-0.4-0.1-0.6-0.1c-0.2,0-0.5,0-0.7,0.1
		c-0.2,0.1-0.5,0.1-0.7,0.3c-0.2,0.1-0.4,0.3-0.6,0.5s-0.3,0.4-0.4,0.6C14.8,105,14.8,105.3,14.9,105.6z"/>
	<path d="M16.6,99.9c0.3,0,0.6-0.2,0.7-0.4c0.2-0.2,0.2-0.5,0.2-0.8c0-0.3-0.1-0.5-0.3-0.7c-0.2-0.2-0.3-0.4-0.5-0.5l-2.5,0.3
		c-0.1,0-0.2,0-0.3,0.1c-0.1,0-0.2,0.1-0.2,0.2s-0.1,0.2-0.1,0.3s-0.1,0.3-0.1,0.5l-0.1,0L13.1,97l3.6-0.5c0.3,0,0.5-0.1,0.6-0.3
		c0.1-0.2,0.1-0.4,0.1-0.7l0.1,0c0.1,0.3,0.1,0.6,0.2,0.9c0,0.3,0.1,0.6,0.2,0.9l-0.6,0.1c0.2,0.2,0.5,0.5,0.7,0.8
		c0.2,0.3,0.3,0.6,0.4,1c0.1,0.4,0,0.7-0.2,1c-0.2,0.3-0.5,0.5-0.9,0.5l-2.5,0.3c-0.2,0-0.4,0.1-0.5,0.3c-0.1,0.1-0.1,0.4-0.1,0.7
		l-0.2,0l-0.4-1.8L16.6,99.9z"/>
	<path d="M17.4,95.1c-0.1-0.3-0.1-0.5-0.2-0.6c-0.1-0.1-0.3-0.2-0.5-0.2l-2.8,0.2c-0.2,0-0.4,0.1-0.4,0.3c0,0.2-0.1,0.4,0,0.6
		l-0.1,0l-0.4-1.7l0.7,0c-0.1-0.1-0.2-0.2-0.3-0.3c-0.1-0.1-0.2-0.2-0.3-0.4c-0.1-0.1-0.2-0.3-0.3-0.4c-0.1-0.1-0.1-0.3-0.1-0.4
		c0-0.3,0.1-0.5,0.2-0.7c0.2-0.2,0.4-0.3,0.7-0.3L14,92c-0.1,0-0.1,0-0.2,0c-0.1,0-0.1,0-0.2,0c-0.1,0-0.2,0.1-0.3,0.1
		c-0.1,0.1-0.1,0.2-0.1,0.3c0,0.1,0,0.2,0.1,0.3c0.1,0.1,0.1,0.2,0.2,0.3c0.1,0.1,0.2,0.2,0.3,0.3s0.2,0.2,0.3,0.2l2.5-0.2
		c0.3,0,0.4-0.1,0.5-0.3c0.1-0.2,0.1-0.4,0.2-0.7l0.1,0c0,0.3,0,0.5,0,0.8c0,0.3,0,0.5,0,0.8c0,0.2,0,0.4,0,0.5c0,0.2,0,0.3,0.1,0.5
		L17.4,95.1z"/>
	<path d="M9.3,87c0-0.3,0.1-0.5,0.1-0.8c0-0.3,0.1-0.5,0.1-0.9c0-0.2,0-0.3,0-0.5c0-0.2,0-0.3,0-0.5c0.2-0.1,0.4-0.2,0.7-0.5
		c0.3-0.2,0.7-0.5,1.1-0.7c0.4-0.3,0.8-0.6,1.3-0.9c0.4-0.3,0.9-0.6,1.3-0.9c0.4-0.3,0.8-0.6,1.2-0.8c0.4-0.2,0.7-0.4,0.9-0.6l0,0
		c-0.2,0-0.5,0-0.7-0.1c-0.2,0-0.5,0-0.7-0.1l-1.4-0.1c-0.5,0-1-0.1-1.3,0c-0.4,0-0.7,0.1-1,0.1c-0.3,0.1-0.5,0.2-0.6,0.4
		s-0.2,0.4-0.3,0.8l-0.1,0c0-0.3,0.1-0.6,0.1-0.8c0-0.3,0.1-0.6,0.1-0.8c0-0.3,0-0.5,0-0.8c0-0.3,0-0.5,0-0.8l0.1,0
		c0,0.5,0.1,0.9,0.4,1.1c0.2,0.2,0.6,0.3,1,0.4l6.3,0.5l0,0.4c-0.7,0.4-1.4,0.8-2.1,1.2c-0.7,0.4-1.3,0.9-1.9,1.3
		c-0.6,0.4-1.2,0.9-1.7,1.3c-0.5,0.4-1,0.8-1.4,1.1c0.2,0,0.4,0,0.6,0.1c0.2,0,0.4,0,0.6,0.1l2.1,0.2c0.7,0.1,1.3,0.1,1.7,0.1
		c0.4,0,0.7,0,1-0.1c0.2-0.1,0.4-0.2,0.5-0.4s0.2-0.5,0.2-0.9l0.1,0c0,0.4-0.1,0.8-0.1,1.2c0,0.4-0.1,0.8-0.1,1.2c0,0.2,0,0.5,0,0.7
		c0,0.2,0,0.5,0,0.7l-0.1,0c0-0.3,0-0.5-0.1-0.7c0-0.2-0.1-0.4-0.1-0.5s-0.2-0.2-0.3-0.3c-0.2-0.1-0.4-0.1-0.6-0.2l-5.5-0.5
		c-0.2,0.2-0.4,0.5-0.6,0.8c-0.1,0.3-0.3,0.6-0.4,0.9L9.3,87z"/>
	<path d="M14.5,77c-0.2-0.1-0.4-0.2-0.5-0.4c-0.1-0.1-0.2-0.3-0.3-0.5c0-0.2-0.1-0.3-0.1-0.5c0-0.2,0-0.4,0.1-0.6
		c0-0.2,0.1-0.4,0.2-0.6c0.1-0.2,0.2-0.4,0.3-0.5c0.1-0.1,0.3-0.2,0.5-0.3c0.2-0.1,0.4-0.1,0.6,0l2.2,0.4c0.1,0,0.3,0,0.4,0
		c0.1-0.1,0.2-0.2,0.2-0.3c0-0.2,0-0.3-0.1-0.4c-0.1-0.1-0.1-0.3-0.2-0.4l0.2-0.1c0.1,0.1,0.1,0.2,0.2,0.3c0.1,0.1,0.2,0.3,0.2,0.4
		c0.1,0.1,0.1,0.3,0.2,0.4c0,0.1,0.1,0.3,0,0.4c0,0.1-0.1,0.2-0.1,0.2c-0.1,0.1-0.1,0.2-0.2,0.2c-0.1,0.1-0.2,0.1-0.3,0.2
		c-0.1,0.1-0.2,0.1-0.2,0.2c0.1,0.3,0.2,0.6,0.3,0.9c0.1,0.3,0.1,0.7,0.1,1c0,0.2-0.1,0.3-0.2,0.5c-0.1,0.1-0.2,0.3-0.3,0.4
		c-0.1,0.1-0.3,0.2-0.4,0.2s-0.3,0.1-0.5,0c-0.3-0.1-0.6-0.2-0.7-0.4s-0.3-0.5-0.3-0.8c-0.1-0.3-0.1-0.6,0-1c0-0.4,0.1-0.7,0.1-1.1
		l-0.9-0.2c-0.3-0.1-0.5,0-0.7,0.2c-0.2,0.2-0.3,0.4-0.4,0.6c0,0.2,0,0.4,0.2,0.5c0.2,0.2,0.4,0.3,0.7,0.3L14.5,77z M16.4,74.7
		c-0.1,0.2-0.2,0.5-0.2,0.8c0,0.1,0,0.3,0,0.5s0,0.3,0.1,0.4c0.1,0.1,0.1,0.2,0.3,0.3c0.1,0.1,0.3,0.2,0.4,0.2c0.3,0,0.5,0,0.6-0.2
		c0.1-0.2,0.2-0.4,0.3-0.6c0-0.3,0-0.5,0-0.7c-0.1-0.2-0.1-0.4-0.2-0.5L16.4,74.7z"/>
	<path d="M14.9,72l-0.2,0c0.1-0.3,0-0.5,0-0.7c-0.1-0.2-0.2-0.4-0.3-0.6s-0.3-0.3-0.5-0.5c-0.2-0.1-0.4-0.3-0.6-0.4l0-0.2l1.7,0.4
		l0.4-1.6l0.4,0.1l-0.4,1.6l2.7,0.6c0.1,0,0.2,0,0.3,0.1c0.1,0,0.2,0,0.3,0s0.2-0.1,0.2-0.1c0.1-0.1,0.1-0.1,0.1-0.3
		c0.1-0.2,0.1-0.4,0-0.6c-0.1-0.2-0.2-0.4-0.3-0.6l0.1-0.1c0.1,0.2,0.2,0.3,0.3,0.5c0.1,0.2,0.2,0.3,0.2,0.5
		c0.1,0.2,0.1,0.3,0.1,0.5s0,0.4,0,0.5c-0.1,0.3-0.2,0.5-0.5,0.6c-0.2,0.1-0.5,0.1-0.7,0l-3.1-0.7L14.9,72z"/>
	<path d="M18.8,67.1c0.3,0.1,0.6,0.1,0.8,0c0.2-0.1,0.4-0.3,0.5-0.6c0.1-0.2,0.1-0.5,0-0.8c0-0.3-0.1-0.5-0.2-0.6l-2.4-0.8
		c-0.1,0-0.2-0.1-0.3-0.1c-0.1,0-0.2,0-0.3,0c-0.1,0-0.2,0.1-0.3,0.2c-0.1,0.1-0.2,0.3-0.3,0.5l-0.1,0l0.4-1.8l3.5,1.1
		c0.3,0.1,0.5,0.1,0.6,0c0.1-0.1,0.3-0.3,0.4-0.6l0.1,0c-0.1,0.3-0.2,0.6-0.2,0.9c-0.1,0.3-0.2,0.6-0.2,0.9l-0.6-0.2
		c0.1,0.3,0.2,0.7,0.3,1c0.1,0.3,0,0.7-0.1,1c-0.1,0.4-0.3,0.6-0.6,0.8c-0.3,0.2-0.6,0.2-1.1,0.1l-2.4-0.7c-0.2-0.1-0.4-0.1-0.5,0
		c-0.1,0.1-0.3,0.3-0.4,0.6l-0.1,0l0.4-1.8L18.8,67.1z"/>
	<path d="M21.5,63.1c0.1-0.3,0.1-0.5,0-0.7c0-0.2-0.2-0.3-0.4-0.4l-2.6-1C18.3,61,18.1,61,18,61.1c-0.1,0.1-0.2,0.3-0.3,0.5
		l-0.1-0.1l0.4-1.7l0.6,0.2c0-0.1-0.1-0.2-0.1-0.4c-0.1-0.2-0.1-0.3-0.1-0.5c0-0.2-0.1-0.3-0.1-0.5c0-0.2,0-0.3,0.1-0.4
		c0.1-0.3,0.3-0.5,0.5-0.6c0.2-0.1,0.5-0.1,0.8,0l0.1,1.1c0,0-0.1-0.1-0.1-0.1c-0.1,0-0.1-0.1-0.2-0.1c-0.1,0-0.2,0-0.3,0
		c-0.1,0-0.2,0.1-0.3,0.2c0,0.1-0.1,0.2,0,0.3c0,0.1,0,0.3,0.1,0.4c0,0.1,0.1,0.3,0.1,0.4c0.1,0.1,0.1,0.2,0.1,0.3l2.4,0.9
		c0.2,0.1,0.4,0.1,0.6,0s0.3-0.3,0.4-0.6l0.1,0.1c-0.1,0.2-0.2,0.5-0.3,0.7s-0.2,0.5-0.3,0.7c-0.1,0.2-0.1,0.3-0.2,0.5
		c-0.1,0.2-0.1,0.3-0.2,0.5L21.5,63.1z"/>
	<path d="M20.3,56.9c-0.2-0.2-0.3-0.3-0.4-0.5s-0.1-0.3-0.1-0.5c0-0.2,0-0.3,0.1-0.5s0.1-0.4,0.2-0.6c0.1-0.2,0.2-0.4,0.3-0.5
		s0.3-0.3,0.4-0.4c0.2-0.1,0.3-0.2,0.5-0.2c0.2,0,0.4,0,0.6,0.1l2,0.9c0.1,0.1,0.3,0.1,0.4,0.1c0.1,0,0.2-0.1,0.3-0.3
		c0.1-0.1,0.1-0.3,0.1-0.4c0-0.2-0.1-0.3-0.1-0.4l0.2-0.1c0,0.1,0.1,0.2,0.1,0.4c0.1,0.1,0.1,0.3,0.1,0.4c0,0.2,0.1,0.3,0.1,0.4
		c0,0.1,0,0.3-0.1,0.4c0,0.1-0.1,0.1-0.2,0.2c-0.1,0.1-0.2,0.1-0.3,0.2c-0.1,0-0.2,0.1-0.3,0.1s-0.2,0.1-0.3,0.1
		c0,0.3,0.1,0.6,0.1,1c0,0.4-0.1,0.7-0.2,0.9c-0.1,0.2-0.2,0.3-0.3,0.4c-0.1,0.1-0.2,0.2-0.4,0.3c-0.1,0.1-0.3,0.1-0.5,0.1
		c-0.2,0-0.3,0-0.5-0.1c-0.3-0.1-0.5-0.3-0.6-0.6c-0.1-0.2-0.1-0.5-0.1-0.8s0.1-0.6,0.2-1c0.1-0.4,0.3-0.7,0.4-1l-0.8-0.4
		c-0.3-0.1-0.5-0.1-0.7,0c-0.2,0.1-0.4,0.3-0.5,0.5c-0.1,0.2-0.1,0.4,0.1,0.6c0.1,0.2,0.3,0.4,0.6,0.5L20.3,56.9z M22.7,55.2
		c-0.2,0.2-0.3,0.4-0.4,0.7c-0.1,0.1-0.1,0.3-0.1,0.4c0,0.2,0,0.3,0,0.4c0,0.1,0.1,0.3,0.2,0.4c0.1,0.1,0.2,0.2,0.4,0.3
		c0.2,0.1,0.5,0.1,0.6,0c0.2-0.1,0.3-0.3,0.4-0.5c0.1-0.2,0.2-0.5,0.2-0.7c0-0.2,0-0.4,0-0.5L22.7,55.2z"/>
	<path d="M25.4,54.1c0.1-0.2,0.1-0.3,0.1-0.5c0-0.1,0-0.2,0-0.3s-0.1-0.2-0.3-0.3c-0.1-0.1-0.3-0.2-0.5-0.3l-5.3-2.9
		c-0.3-0.1-0.5-0.2-0.6-0.2c-0.2,0-0.3,0.2-0.5,0.5l-0.1-0.1l0.7-1.7l6.3,3.5c0.2,0.1,0.4,0.2,0.5,0.3c0.1,0.1,0.3,0.1,0.4,0.1
		s0.2-0.1,0.3-0.2c0.1-0.1,0.2-0.2,0.3-0.4l0.1,0.1c-0.1,0.2-0.2,0.4-0.4,0.6s-0.2,0.4-0.4,0.6c-0.1,0.2-0.2,0.4-0.3,0.6
		s-0.2,0.4-0.3,0.6L25.4,54.1z"/>
	<path d="M28.5,39.5c-0.3-0.1-0.7-0.1-1-0.1c-0.3,0-0.7,0-1,0c-0.3,0.1-0.6,0.2-0.9,0.3c-0.3,0.2-0.5,0.4-0.8,0.7
		c-0.3,0.4-0.4,0.8-0.4,1.2s0,0.8,0.2,1.3c0.1,0.4,0.4,0.8,0.7,1.2c0.3,0.4,0.6,0.7,1,0.9c0.4,0.3,0.8,0.5,1.3,0.7
		c0.4,0.2,0.9,0.2,1.3,0.2c0.4,0,0.8-0.1,1.2-0.3c0.4-0.2,0.7-0.4,0.9-0.8c0.2-0.3,0.4-0.6,0.6-1c0.2-0.3,0.2-0.7,0.2-1.1l-1.3-0.9
		c-0.4-0.3-0.9-0.1-1.4,0.5L29,42.3c0.2-0.2,0.4-0.5,0.5-0.7c0.2-0.2,0.3-0.4,0.5-0.7c0.2-0.2,0.3-0.5,0.5-0.7
		c0.2-0.2,0.3-0.5,0.5-0.7l0.1,0.1c-0.1,0.1-0.2,0.3-0.2,0.4c-0.1,0.1-0.1,0.3-0.1,0.4c0,0.1,0,0.2,0.1,0.4c0.1,0.1,0.2,0.2,0.3,0.3
		l1.4,1c-0.2,0.6-0.3,1.1-0.5,1.6c-0.2,0.5-0.4,1-0.7,1.4c-0.3,0.4-0.7,0.8-1.1,1.1c-0.4,0.3-0.9,0.5-1.4,0.7
		c-0.5,0.1-1.1,0.1-1.6,0c-0.6-0.1-1.1-0.3-1.7-0.7c-0.5-0.3-0.8-0.8-1.1-1.2s-0.4-1-0.5-1.6c-0.1-0.5,0-1.1,0.1-1.6
		c0.1-0.5,0.3-1,0.7-1.5c0.2-0.3,0.4-0.5,0.5-0.7c0.2-0.2,0.3-0.4,0.5-0.5c0.2-0.2,0.3-0.3,0.5-0.4c0.1-0.1,0.3-0.2,0.4-0.3
		c0.1,0.1,0.2,0.2,0.4,0.3c0.2,0.1,0.4,0.2,0.6,0.3c0.2,0.1,0.4,0.2,0.6,0.3c0.2,0.1,0.3,0.2,0.5,0.2L28.5,39.5z"/>
	<path d="M33.7,41.4c0.1-0.2,0.2-0.3,0.2-0.4c0-0.1,0.1-0.2,0-0.3c0-0.1-0.1-0.2-0.2-0.3c-0.1-0.1-0.2-0.2-0.4-0.4L28.7,36
		c-0.2-0.2-0.4-0.3-0.6-0.3s-0.4,0.1-0.6,0.4L27.4,36l1-1.5l5.5,4.7c0.2,0.1,0.3,0.3,0.5,0.4c0.1,0.1,0.2,0.1,0.4,0.1
		c0.1,0,0.2,0,0.3-0.1c0.1-0.1,0.2-0.2,0.4-0.3l0.1,0.1c-0.2,0.2-0.3,0.3-0.5,0.5c-0.2,0.2-0.3,0.4-0.5,0.5
		c-0.1,0.2-0.3,0.4-0.4,0.5s-0.3,0.4-0.4,0.5L33.7,41.4z"/>
	<path d="M34.3,33.9c0.3-0.3,0.5-0.5,0.8-0.6S35.7,33,36,33c0.3,0,0.6,0,0.9,0.1c0.3,0.1,0.6,0.3,0.8,0.5c0.3,0.2,0.5,0.5,0.6,0.8
		c0.1,0.3,0.2,0.6,0.2,0.9c0,0.3-0.1,0.6-0.2,0.9c-0.1,0.3-0.3,0.6-0.6,0.9c-0.3,0.3-0.5,0.5-0.8,0.6C36.6,38,36.3,38,36,38.1
		c-0.3,0-0.6,0-0.9-0.1c-0.3-0.1-0.6-0.3-0.8-0.5c-0.3-0.2-0.5-0.5-0.6-0.8c-0.1-0.3-0.2-0.6-0.2-0.9c0-0.3,0.1-0.6,0.2-0.9
		C33.8,34.4,34,34.1,34.3,33.9z M34.4,34.3c-0.2,0.2-0.2,0.3-0.3,0.5c0,0.2,0,0.4,0,0.6c0.1,0.2,0.1,0.4,0.3,0.6
		c0.1,0.2,0.3,0.4,0.4,0.5c0.2,0.2,0.4,0.3,0.6,0.5c0.2,0.1,0.5,0.2,0.7,0.3c0.3,0,0.5,0,0.7,0c0.2-0.1,0.5-0.2,0.7-0.4
		c0.2-0.2,0.2-0.3,0.3-0.5c0-0.2,0-0.4,0-0.6c-0.1-0.2-0.1-0.4-0.3-0.6c-0.1-0.2-0.3-0.4-0.4-0.5c-0.2-0.2-0.4-0.3-0.6-0.4
		c-0.2-0.1-0.5-0.2-0.7-0.3c-0.3,0-0.5,0-0.7,0C34.8,33.9,34.6,34.1,34.4,34.3z"/>
	<path d="M36.4,31.7c0.1-0.1,0.2-0.2,0.3-0.2c0.1-0.1,0.2-0.1,0.3-0.2c0.1-0.1,0.2-0.1,0.2-0.2s0.2-0.2,0.3-0.2
		c0.2-0.1,0.3-0.3,0.5-0.4c0.2-0.1,0.3-0.3,0.5-0.5l0.1,0.1c-0.1,0.1-0.2,0.3-0.2,0.4c0,0.2,0,0.3,0.1,0.5c0.1,0.1,0.3,0.2,0.5,0.3
		c0.2,0.1,0.5,0.2,0.8,0.4c0.3,0.1,0.5,0.2,0.8,0.3c0.3,0.1,0.5,0.2,0.6,0.3l-0.6-2.6c-0.1-0.1-0.2-0.1-0.3-0.1
		c-0.1,0-0.2-0.1-0.4-0.1c-0.1,0-0.2,0-0.4,0c-0.1,0-0.2,0.1-0.4,0.2L39,29.5c0.1,0,0.1-0.1,0.2-0.1c0.1,0,0.1-0.1,0.2-0.1
		c0.1-0.1,0.1-0.1,0.2-0.2c0.1-0.1,0.2-0.2,0.3-0.3c0.2-0.2,0.4-0.3,0.6-0.5c0.2-0.2,0.4-0.3,0.5-0.5l0.1,0.1
		c-0.2,0.1-0.2,0.3-0.3,0.5c0,0.2,0,0.3,0.1,0.5c0.1,0.1,0.2,0.2,0.5,0.3s0.5,0.3,0.8,0.4c0.3,0.1,0.6,0.3,0.8,0.4
		c0.3,0.1,0.5,0.2,0.6,0.3c0-0.1-0.1-0.3-0.1-0.6s-0.1-0.6-0.2-0.9c-0.1-0.3-0.2-0.6-0.3-0.8c-0.1-0.2-0.2-0.4-0.2-0.5
		c-0.2-0.2-0.3-0.3-0.5-0.3s-0.3,0.1-0.5,0.2l-0.1-0.1c0.1-0.1,0.3-0.2,0.4-0.3s0.3-0.2,0.4-0.3c0.1-0.1,0.3-0.2,0.4-0.4
		c0.1-0.1,0.3-0.2,0.4-0.4l0.1,0.1c-0.1,0.1-0.2,0.3-0.2,0.5s0,0.4,0,0.6c0,0.2,0.1,0.4,0.1,0.6c0.1,0.2,0.1,0.4,0.2,0.6l0.8,2.9
		L44,31.2l-3.2-1.4l0.9,3.4l-0.2,0.2c-0.3-0.1-0.5-0.3-0.8-0.4c-0.3-0.1-0.6-0.3-0.9-0.4c-0.3-0.1-0.6-0.3-0.9-0.4
		c-0.3-0.1-0.5-0.2-0.8-0.3c-0.3-0.1-0.6-0.2-0.9-0.2c-0.3,0-0.5,0-0.8,0.2L36.4,31.7z"/>
</g>
</svg>
